<?xml version="1.0" encoding="UTF-8"?>
<!DOCTYPE svg PUBLIC "-//W3C//DTD SVG 1.1//EN" "http://www.w3.org/Graphics/SVG/1.1/DTD/svg11.dtd">
<!-- Creator: CorelDRAW -->
<svg xmlns="http://www.w3.org/2000/svg" xml:space="preserve" width="41.1238mm" height="32.5054mm" version="1.1" style="shape-rendering:geometricPrecision; text-rendering:geometricPrecision; image-rendering:optimizeQuality; fill-rule:evenodd; clip-rule:evenodd"
viewBox="0 0 1346.7 1064.47"
 xmlns:xlink="http://www.w3.org/1999/xlink"
 xmlns:xodm="http://www.corel.com/coreldraw/odm/2003">
 <defs>
  <style type="text/css">
   <![CDATA[
    .str1 {stroke:#C1B4AB;stroke-width:9.82;stroke-miterlimit:22.9256}
    .str2 {stroke:#C1B4AB;stroke-width:9.82;stroke-miterlimit:22.9256}
    .str3 {stroke:#C1B4AB;stroke-width:39.3;stroke-miterlimit:22.9256}
    .str4 {stroke:#C1B4AB;stroke-width:39.3;stroke-miterlimit:22.9256}
    .str5 {stroke:#373435;stroke-width:2.5;stroke-miterlimit:22.9256}
    .str0 {stroke:#C1B4AB;stroke-width:9.82;stroke-miterlimit:22.9256;stroke-dasharray:19.648475 9.824238}
    .fil0 {fill:none}
   ]]>
  </style>
 </defs>
 <g id="Слой_x0020_1">
  <metadata id="CorelCorpID_0Corel-Layer"/>
  <path class="fil0 str0" d="M889.2 667.22c-100.89,-8.81 -144.07,46.91 -144.81,121.49"/>
  <line class="fil0 str1" x1="409.46" y1="404.27" x2="409.46" y2= "273.89" />
  <line class="fil0 str2" x1="747.91" y1="785.63" x2="370" y2= "785.63" />
  <line class="fil0 str1" x1="408.17" y1="570.63" x2="408.17" y2= "822.1" />
  <path class="fil0 str2" d="M878.45 649.06c0,45.81 0,91.61 0,137.42 33.31,0 84.47,0 117.77,0"/>
  <path class="fil0 str3" d="M370 323.68c191.2,0 382.41,0 573.61,0 0,26.86 0,53.73 0,80.59"/>
  <path class="fil0 str4" d="M943.61 570.62c0,83.82 0,167.65 0,251.47"/>
  <line class="fil0 str1" x1="621.7" y1="341.04" x2="621.7" y2= "639.43" />
  <line class="fil0 str2" x1="717.92" y1="635.05" x2="408.17" y2= "635.05" />
  <rect class="fil0 str5" x="1.25" y="1.25" width="1344.2" height="1061.97"/>
 </g>
</svg>
