<?xml version="1.0" encoding="UTF-8"?>
<!DOCTYPE svg PUBLIC "-//W3C//DTD SVG 1.1//EN" "http://www.w3.org/Graphics/SVG/1.1/DTD/svg11.dtd">
<!-- Creator: CorelDRAW -->
<svg xmlns="http://www.w3.org/2000/svg" xml:space="preserve" width="41.1238mm" height="43.1528mm" version="1.1" style="shape-rendering:geometricPrecision; text-rendering:geometricPrecision; image-rendering:optimizeQuality; fill-rule:evenodd; clip-rule:evenodd"
viewBox="0 0 1346.7 1413.14"
 xmlns:xlink="http://www.w3.org/1999/xlink"
 xmlns:xodm="http://www.corel.com/coreldraw/odm/2003">
 <defs>
  <style type="text/css">
   <![CDATA[
    .str1 {stroke:#C1B4AB;stroke-width:9.82;stroke-miterlimit:22.9256}
    .str2 {stroke:#C1B4AB;stroke-width:9.82;stroke-miterlimit:22.9256}
    .str3 {stroke:#C1B4AB;stroke-width:39.3;stroke-miterlimit:22.9256}
    .str4 {stroke:#C1B4AB;stroke-width:39.3;stroke-miterlimit:22.9256}
    .str5 {stroke:#C1B4AB;stroke-width:3.27;stroke-miterlimit:22.9256}
    .str6 {stroke:#373435;stroke-width:2.5;stroke-miterlimit:22.9256}
    .str0 {stroke:#C1B4AB;stroke-width:9.82;stroke-miterlimit:22.9256;stroke-dasharray:19.648475 9.824238}
    .fil0 {fill:none}
    .fil1 {fill:#C1B4AB;fill-rule:nonzero}
    .fil2 {fill:#C1B4AB;fill-rule:nonzero}
   ]]>
  </style>
 </defs>
 <g id="Слой_x0020_1">
  <metadata id="CorelCorpID_0Corel-Layer"/>
  <path class="fil0 str0" d="M886.1 673.16c-100.89,-8.81 -144.07,46.91 -144.81,121.49"/>
  <line class="fil0 str1" x1="406.35" y1="410.21" x2="406.35" y2= "279.83" />
  <line class="fil0 str2" x1="744.81" y1="791.57" x2="366.9" y2= "791.57" />
  <line class="fil0 str1" x1="405.06" y1="576.57" x2="405.06" y2= "828.04" />
  <path class="fil0 str2" d="M875.35 655c0,45.81 0,91.61 0,137.42 33.31,0 84.47,0 117.77,0"/>
  <path class="fil0 str3" d="M366.9 329.62c191.2,0 382.41,0 573.61,0 0,26.86 0,53.73 0,80.59"/>
  <path class="fil0 str4" d="M940.51 576.56c0,83.82 0,167.65 0,251.47"/>
  <path class="fil1 str5" d="M412.52 1009.91l-8.34 3.03 0 1.73 24.53 0 0 -1.73 -8.24 -3.03 0 -66.11 8.24 -3.02 0 -1.73 -24.53 0 0 1.73 8.34 3.02 0 66.11zm32.19 0l-8.92 3.03 0 1.73 23.18 0 0 -1.73 -8.92 -3.03 0.39 -60.38 22.89 66.22 2.04 0 23.08 -66 0.58 60.17 -9.12 3.03 0 1.73 26.09 0 0 -1.84 -8.92 -2.92 -0.68 -66.11 8.73 -2.92 0 -1.83 -18.14 0 -20.85 61.36 -20.75 -61.36 -18.91 0 0 1.73 8.92 3.02 -0.68 66.11zm86.5 0l-8.34 3.03 0 1.73 24.53 0 0 -1.84 -8.24 -2.92 0 -27.33 6.4 0c16.19,0 27.25,-6.16 27.25,-22.04 0,-15.66 -10.67,-21.5 -27.15,-21.5l-22.79 0 0 1.73 8.34 3.02 0 66.11zm7.95 -66.32l6.4 0c11.64,0 18.62,4.43 18.62,17.28 0,12.64 -7.18,17.18 -18.53,17.18l-6.5 0 0 -34.46zm48.59 66.32l-8.05 3.03 0 1.73 24.15 0 0 -1.84 -8.14 -2.92 0 -27.87 7.56 0c0.97,0 1.94,0 2.81,-0.11l16.58 32.73 15.42 0 0 -1.73 -9.02 -3.03 -15.13 -29.06c9.41,-2.49 15.42,-8.86 15.42,-20.96 0,-15.12 -10.47,-20.85 -26.67,-20.85l-22.99 0 0 1.73 8.05 3.02 0 66.11zm7.95 -66.32l6.79 0c11.15,0 18.23,4 18.23,16.53 0,12.96 -6.11,17.39 -16.68,17.39l-8.34 0 0 -33.92zm54.6 66.32l-8.34 3.03 0 1.73 46.93 0 0 -17.72 -1.45 0 -3.78 13.18 -25.41 0 0 -32.3 15.71 0 3.39 9.4 1.45 0 0 -23.33 -1.55 0 -3.3 9.4 -15.71 0 0 -29.71 24.83 0 2.62 12.2 1.55 0 1.45 -16.74 -46.74 0 0 1.73 8.34 3.02 0 66.11zm82.13 -12.1c0,8.21 -4.75,13.18 -14.84,13.18 -4.46,0 -8.92,-0.86 -12.6,-2.81l-2.52 -14.26 -1.36 0 -2.23 16.53c4.56,3.57 12.31,5.3 19.01,5.3 12.8,0 21.82,-6.59 21.82,-19.66 0,-12.2 -5.14,-16.1 -19.2,-24.41 -9.5,-5.72 -12.9,-9.61 -12.9,-16.09 0,-8.75 4.56,-12.86 13,-12.86 3.98,0 7.47,0.86 10.67,2.27l3.1 12.2 1.16 0 1.36 -14.69c-3.1,-2.37 -9.6,-4.54 -16.68,-4.54 -11.54,0 -19.78,5.94 -19.78,19.23 0,10.59 5.72,15.88 15.13,21.17 12.99,7.24 16.87,11.78 16.87,19.45zm50.14 0c0,8.21 -4.75,13.18 -14.84,13.18 -4.46,0 -8.92,-0.86 -12.6,-2.81l-2.52 -14.26 -1.36 0 -2.23 16.53c4.56,3.57 12.32,5.3 19.01,5.3 12.8,0 21.82,-6.59 21.82,-19.66 0,-12.2 -5.14,-16.1 -19.2,-24.41 -9.5,-5.72 -12.9,-9.61 -12.9,-16.09 0,-8.75 4.56,-12.86 12.99,-12.86 3.98,0 7.47,0.86 10.67,2.27l3.1 12.2 1.17 0 1.36 -14.69c-3.1,-2.37 -9.6,-4.54 -16.68,-4.54 -11.54,0 -19.78,5.94 -19.78,19.23 0,10.59 5.72,15.88 15.13,21.17 12.99,7.24 16.87,11.78 16.87,19.45zm23.95 12.1l-8.34 3.03 0 1.73 24.53 0 0 -1.73 -8.24 -3.03 0 -66.11 8.24 -3.02 0 -1.73 -24.53 0 0 1.73 8.34 3.02 0 66.11zm53.82 -71.83c-18.33,0 -29.38,15.12 -29.38,38.78 0,24.73 11.73,38.89 28.8,38.89 17.16,0 28.9,-14.37 28.9,-39.97 0,-22.79 -11.54,-37.7 -28.32,-37.7zm-0.68 4.54c12.99,0 19.98,14.69 19.98,34.24 0,19.12 -6.4,34.46 -19.3,34.46 -13.48,0 -20.36,-16.31 -20.36,-35.65 0,-18.47 6.21,-33.06 19.68,-33.06zm91.74 73.13l0.68 -71.94 8.34 -3.02 0 -1.73 -21.91 0 0 1.83 8.24 2.92 -0.29 52.71 -33.84 -57.47 -15.42 0 0 1.73 8.34 3.02 -0.78 66.11 -8.24 3.03 0 1.73 21.82 0 0 -1.84 -8.25 -2.92 0.39 -57.9 38.79 63.73 2.13 0z"/>
  <path class="fil2" d="M424.46 1131.42l-5.02 0 0 -20.38 0.6 0.72 -12.39 19.66 -4.39 0 0 -28.67 5.01 0 0 20.85 -0.6 -0.72 12.44 -20.13 4.35 0 0 28.67zm24.22 0.03l0 -28.7 5.06 0 0 28.7 -5.06 0zm-16.29 0l0 -28.7 5.06 0 0 28.7 -5.06 0zm3.15 -11.56l0 -5.09 15.81 0 0 5.09 -15.81 0zm30.63 11.56l0 -25.69 5.07 0 0 25.69 -5.07 0zm-7.47 -23.62l0 -5.09 20.02 0 0 5.09 -20.02 0zm35.53 24.03c-3.59,0 -6.37,-1.11 -8.34,-3.35 -1.97,-2.23 -2.95,-5.4 -2.95,-9.5l0 -3.24c0,-4.27 0.95,-7.59 2.84,-9.93 1.9,-2.34 4.57,-3.51 8.01,-3.51 3.25,0 5.75,1.33 7.53,3.99 1.78,2.65 2.67,6.38 2.67,11.17l0 1.88 -17.38 0 0 -4.54 12.57 0 0 0c-0.15,-2.32 -0.7,-4.13 -1.63,-5.45 -0.93,-1.31 -2.19,-1.96 -3.76,-1.96 -1.9,0 -3.38,0.7 -4.44,2.1 -1.06,1.4 -1.59,3.38 -1.59,5.95l0 3.64c0,2.38 0.57,4.21 1.7,5.47 1.13,1.27 2.73,1.92 4.78,1.92 1.02,0 2.04,-0.24 3.05,-0.7 1.01,-0.45 1.91,-1.1 2.71,-1.94l0 0 3.32 3.71 0 0c-1.27,1.36 -2.7,2.42 -4.3,3.16 -1.58,0.75 -3.18,1.12 -4.79,1.12zm16.71 11.25l0 -40.37 5.06 0 0 40.37 -5.06 0zm11.54 -11.25c-1.6,0 -3,-0.42 -4.19,-1.28 -1.2,-0.86 -2.07,-2.07 -2.64,-3.64l0.35 -5.99c0,1.24 0.2,2.28 0.6,3.15 0.4,0.86 0.97,1.53 1.72,1.99 0.75,0.46 1.67,0.69 2.74,0.69 1.67,0 2.97,-0.57 3.89,-1.7 0.92,-1.13 1.37,-2.74 1.37,-4.8l0 -6.22c0,-2.1 -0.46,-3.73 -1.37,-4.89 -0.92,-1.16 -2.22,-1.75 -3.89,-1.75 -1.07,0 -1.99,0.23 -2.74,0.66 -0.75,0.44 -1.32,1.09 -1.72,1.93 -0.4,0.85 -0.6,1.89 -0.6,3.11l-0.52 -5.53c0.78,-1.68 1.8,-2.97 3.05,-3.89 1.26,-0.91 2.66,-1.37 4.19,-1.37 2.77,0 4.9,1.02 6.4,3.06 1.51,2.04 2.27,4.92 2.27,8.64l0 6.25c0,3.67 -0.78,6.52 -2.34,8.55 -1.55,2.03 -3.74,3.04 -6.58,3.04zm18.57 -0.41l0 -5.36 9.08 0c1.02,0 1.85,-0.36 2.47,-1.08 0.62,-0.72 0.92,-1.66 0.92,-2.84l0 0c0,-1.2 -0.3,-2.16 -0.92,-2.88 -0.63,-0.72 -1.45,-1.07 -2.47,-1.07l-9.08 0 0 -5.37 8.89 0c2.7,0 4.86,0.86 6.5,2.56 1.64,1.71 2.47,3.96 2.49,6.77l0 0c0,2.78 -0.82,5.02 -2.46,6.73 -1.63,1.71 -3.81,2.56 -6.52,2.56l-8.89 0zm-2.46 0l0 -28.7 5.06 0 0 28.7 -5.06 0zm37.46 0.41c-3.59,0 -6.38,-1.11 -8.35,-3.35 -1.97,-2.23 -2.95,-5.4 -2.95,-9.5l0 -3.24c0,-4.27 0.95,-7.59 2.84,-9.93 1.9,-2.34 4.57,-3.51 8.01,-3.51 3.25,0 5.75,1.33 7.53,3.99 1.78,2.65 2.67,6.38 2.67,11.17l0 1.88 -17.38 0 0 -4.54 12.57 0 0 0c-0.15,-2.32 -0.69,-4.13 -1.63,-5.45 -0.93,-1.31 -2.19,-1.96 -3.76,-1.96 -1.9,0 -3.38,0.7 -4.44,2.1 -1.06,1.4 -1.59,3.38 -1.59,5.95l0 3.64c0,2.38 0.57,4.21 1.7,5.47 1.14,1.27 2.73,1.92 4.78,1.92 1.02,0 2.04,-0.24 3.05,-0.7 1.01,-0.45 1.92,-1.1 2.71,-1.94l0 0 3.32 3.71 0 0c-1.27,1.36 -2.7,2.42 -4.3,3.16 -1.58,0.75 -3.18,1.12 -4.78,1.12zm16.71 11.25l0 -40.37 5.06 0 0 40.37 -5.06 0zm11.54 -11.25c-1.6,0 -3,-0.42 -4.19,-1.28 -1.2,-0.86 -2.07,-2.07 -2.64,-3.64l0.35 -5.99c0,1.24 0.21,2.28 0.6,3.15 0.4,0.86 0.97,1.53 1.72,1.99 0.75,0.46 1.67,0.69 2.75,0.69 1.67,0 2.96,-0.57 3.89,-1.7 0.92,-1.13 1.37,-2.74 1.37,-4.8l0 -6.22c0,-2.1 -0.46,-3.73 -1.37,-4.89 -0.92,-1.16 -2.22,-1.75 -3.89,-1.75 -1.08,0 -1.99,0.23 -2.75,0.66 -0.75,0.44 -1.32,1.09 -1.72,1.93 -0.4,0.85 -0.6,1.89 -0.6,3.11l-0.52 -5.53c0.78,-1.68 1.8,-2.97 3.05,-3.89 1.26,-0.91 2.66,-1.37 4.19,-1.37 2.77,0 4.9,1.02 6.41,3.06 1.51,2.04 2.26,4.92 2.26,8.64l0 6.25c0,3.67 -0.78,6.52 -2.34,8.55 -1.55,2.03 -3.74,3.04 -6.57,3.04zm38.95 -0.41l0 -28.7 5.07 0 0 28.7 -5.07 0zm-20.38 0l0 -5.36 7.85 0c1.02,0 1.85,-0.36 2.47,-1.08 0.62,-0.72 0.93,-1.66 0.93,-2.84l0 0c0,-1.2 -0.31,-2.16 -0.93,-2.88 -0.62,-0.72 -1.44,-1.07 -2.47,-1.07l-7.85 0 0 -5.37 7.64 0c2.7,0 4.86,0.86 6.51,2.56 1.63,1.71 2.47,3.96 2.48,6.77l0 0c0,2.78 -0.82,5.02 -2.46,6.73 -1.64,1.71 -3.82,2.56 -6.53,2.56l-7.64 0zm-2.46 0l0 -28.7 5.06 0 0 28.7 -5.06 0z"/>
  <path class="fil2" d="M413.66 1079.12c-3.54,0 -6.28,-1.08 -8.23,-3.26 -1.94,-2.17 -2.91,-5.24 -2.91,-9.2l0 -4.73c0,-3.93 0.97,-6.97 2.91,-9.12 1.95,-2.14 4.69,-3.22 8.23,-3.22 2.03,0 3.84,0.4 5.47,1.19 1.62,0.79 2.91,1.93 3.87,3.4l0 0 -3.65 3.65 0 0c-0.71,-0.92 -1.55,-1.63 -2.53,-2.13 -0.98,-0.49 -2,-0.75 -3.07,-0.75 -1.95,0 -3.47,0.62 -4.55,1.83 -1.07,1.22 -1.61,2.93 -1.61,5.14l0 4.73c0,2.27 0.53,4.01 1.61,5.25 1.08,1.24 2.59,1.86 4.55,1.86 1.07,0 2.1,-0.27 3.07,-0.8 0.98,-0.54 1.82,-1.29 2.53,-2.27l0 0 3.65 3.93 0 0c-0.96,1.44 -2.25,2.55 -3.89,3.33 -1.63,0.78 -3.44,1.18 -5.45,1.18zm24.8 0c-3.38,0 -5.99,-1.09 -7.85,-3.27 -1.85,-2.19 -2.78,-5.26 -2.78,-9.22l0 -4.67c0,-3.92 0.92,-6.97 2.78,-9.12 1.86,-2.16 4.47,-3.24 7.85,-3.24 3.37,0 5.99,1.07 7.85,3.24 1.85,2.15 2.78,5.2 2.78,9.12l0 4.76c0,3.94 -0.93,6.99 -2.78,9.17 -1.85,2.16 -4.47,3.25 -7.85,3.25zm0 -5.36c1.77,0 3.14,-0.62 4.11,-1.86 0.97,-1.23 1.45,-2.96 1.45,-5.19l0 -4.76c0,-2.23 -0.48,-3.95 -1.45,-5.17 -0.97,-1.21 -2.34,-1.83 -4.11,-1.83 -1.75,0 -3.11,0.62 -4.1,1.83 -0.97,1.22 -1.46,2.94 -1.46,5.17l0 4.76c0,2.23 0.48,3.96 1.46,5.19 0.99,1.24 2.35,1.86 4.1,1.86zm25.9 5.36c-2.71,0 -4.92,-0.75 -6.6,-2.23 -1.69,-1.48 -2.71,-3.58 -3.06,-6.28l0 0 4.92 0 0 0c0.19,1.06 0.68,1.9 1.51,2.48 0.82,0.59 1.87,0.88 3.16,0.88 1.44,0 2.56,-0.35 3.36,-1.05 0.79,-0.7 1.19,-1.7 1.19,-2.99l0 -0.03c0,-0.99 -0.28,-1.77 -0.85,-2.32 -0.57,-0.55 -1.38,-0.83 -2.44,-0.83l-4.05 0 0 -4.81 4.05 0c0.77,0 1.38,-0.29 1.8,-0.85 0.43,-0.58 0.65,-1.38 0.65,-2.41l0 -0.03c0,-1.26 -0.35,-2.22 -1.03,-2.91 -0.68,-0.68 -1.67,-1.02 -2.94,-1.02 -1.18,0 -2.16,0.29 -2.95,0.89 -0.8,0.59 -1.33,1.41 -1.61,2.48l0 0 -4.89 0 0 0c0.47,-2.71 1.56,-4.8 3.25,-6.29 1.7,-1.48 3.84,-2.23 6.43,-2.23 2.81,0 4.99,0.67 6.52,2.02 1.53,1.34 2.3,3.25 2.3,5.69l0 0.03c0,1.57 -0.34,2.93 -1.02,4.07 -0.68,1.14 -1.62,1.98 -2.86,2.52 1.51,0.24 2.67,0.91 3.49,2 0.82,1.09 1.23,2.53 1.23,4.3l0 0.03c0,2.81 -0.83,5 -2.5,6.55 -1.66,1.55 -4.01,2.32 -7.03,2.32zm15.78 -2.62l-1.74 -2.88 0.59 0c1.04,0 1.83,-0.32 2.36,-0.95 0.53,-0.64 0.88,-1.63 1.07,-2.97 0.18,-1.35 0.27,-3.07 0.27,-5.17l0 -14.52 5.07 0 0 16.39c0,3.34 -0.62,5.85 -1.84,7.55 -1.23,1.7 -2.96,2.55 -5.19,2.55l-0.59 0zm-2.65 9.43l0 -12.31 5.06 0 0 12.31 -5.06 0zm0 -7.22l0 -5.09 24.79 0 0 5.09 -24.79 0zm22.73 7.22l0 -12.31 5.07 0 0 12.31 -5.07 0zm-4.59 -7.22l0 -28.7 5.07 0 0 28.7 -5.07 0zm-9.78 -23.61l0 -5.09 11.46 0 0 5.09 -11.46 0zm39.94 23.61l0 -18.19c0,-1.88 -0.46,-3.34 -1.36,-4.38 -0.91,-1.04 -2.18,-1.57 -3.84,-1.57 -1.01,0 -2.01,0.17 -2.99,0.52 -0.98,0.34 -1.86,0.83 -2.64,1.47l-3.69 -2.82c0.98,-1.3 2.26,-2.32 3.86,-3.05 1.6,-0.73 3.37,-1.09 5.33,-1.09 3.23,0 5.72,0.94 7.49,2.79 1.77,1.86 2.66,4.49 2.66,7.88l0 18.44 -4.81 0zm-6.31 0.42c-3.16,0 -5.53,-0.73 -7.11,-2.19 -1.58,-1.45 -2.37,-3.68 -2.37,-6.68 0,-2.86 0.73,-4.99 2.18,-6.41 1.45,-1.4 3.62,-2.12 6.52,-2.12l7.32 0 0.35 4.54 -7.64 0c-1.31,0 -2.3,0.32 -2.96,0.98 -0.66,0.65 -0.99,1.65 -0.99,3 0,1.45 0.44,2.53 1.31,3.23 0.88,0.71 2.19,1.05 3.95,1.05 1.91,0 3.35,-0.23 4.32,-0.7 0.96,-0.45 1.44,-1.18 1.44,-2.15l0.52 4.04c-0.45,0.77 -1,1.4 -1.66,1.91 -0.66,0.49 -1.42,0.87 -2.27,1.11 -0.85,0.26 -1.82,0.38 -2.89,0.38zm29.36 0c-3.59,0 -6.37,-1.11 -8.35,-3.35 -1.96,-2.23 -2.95,-5.4 -2.95,-9.5l0 -3.24c0,-4.28 0.95,-7.59 2.84,-9.93 1.9,-2.34 4.57,-3.51 8.01,-3.51 3.25,0 5.75,1.33 7.53,3.99 1.78,2.65 2.67,6.38 2.67,11.17l0 1.88 -17.38 0 0 -4.54 12.57 0 0 0c-0.15,-2.32 -0.7,-4.13 -1.63,-5.45 -0.93,-1.31 -2.18,-1.96 -3.76,-1.96 -1.9,0 -3.38,0.7 -4.44,2.1 -1.06,1.4 -1.59,3.38 -1.59,5.95l0 3.64c0,2.38 0.57,4.21 1.7,5.47 1.13,1.27 2.73,1.92 4.78,1.92 1.02,0 2.04,-0.24 3.05,-0.7 1.01,-0.45 1.91,-1.1 2.71,-1.94l0 0 3.32 3.71 0 0c-1.27,1.36 -2.7,2.41 -4.3,3.16 -1.58,0.75 -3.19,1.12 -4.79,1.12zm28.82 -13.24l7.62 -15.88 4.49 0 0 28.7 -4.57 0 0 -20.26 0.25 1.77 -6.28 12.91 -3.03 0 -6.28 -12.91 0.25 -1.77 0 20.26 -4.57 0 0 -28.7 4.49 0 7.62 15.88zm36.69 12.82l0 -5.09 9.53 0c1.01,0 1.79,-0.32 2.34,-0.95 0.54,-0.64 0.82,-1.52 0.82,-2.64l0 -0.09c0,-1.2 -0.27,-2.13 -0.82,-2.79 -0.55,-0.66 -1.33,-0.99 -2.34,-0.99l-9.53 0 0 -5.09 9.53 0c1.79,0 2.69,-0.93 2.69,-2.77l0 0c0,-2.14 -0.88,-3.21 -2.63,-3.21l-9.59 0 0 -5.09 9.76 0c2.41,0 4.28,0.62 5.59,1.87 1.32,1.25 1.97,3 1.97,5.27l0 0c0,1.73 -0.48,3.17 -1.46,4.31 -0.98,1.14 -2.35,1.87 -4.12,2.18 1.93,0.41 3.41,1.28 4.47,2.61 1.06,1.34 1.59,3.01 1.59,5.02l0 0.09c0,2.34 -0.71,4.15 -2.13,5.43 -1.41,1.28 -3.41,1.92 -5.99,1.92l-9.68 0zm-2.97 0l0 -28.7 5.03 0 0 28.7 -5.03 0zm43.76 0l0 -28.7 5.06 0 0 28.7 -5.06 0zm-16.29 0l0 -28.7 5.06 0 0 28.7 -5.06 0zm3.15 -23.34l0 -5.36 15.81 0 0 5.36 -15.81 0zm36.69 23.76c-3.59,0 -6.37,-1.11 -8.35,-3.35 -1.96,-2.23 -2.95,-5.4 -2.95,-9.5l0 -3.24c0,-4.28 0.95,-7.59 2.84,-9.93 1.9,-2.34 4.56,-3.51 8.01,-3.51 3.25,0 5.75,1.33 7.53,3.99 1.78,2.65 2.67,6.38 2.67,11.17l0 1.88 -17.38 0 0 -4.54 12.57 0 0 0c-0.15,-2.32 -0.7,-4.13 -1.63,-5.45 -0.93,-1.31 -2.19,-1.96 -3.76,-1.96 -1.9,0 -3.38,0.7 -4.44,2.1 -1.06,1.4 -1.59,3.38 -1.59,5.95l0 3.64c0,2.38 0.57,4.21 1.7,5.47 1.13,1.27 2.72,1.92 4.78,1.92 1.02,0 2.04,-0.24 3.05,-0.7 1.01,-0.45 1.92,-1.1 2.71,-1.94l0 0 3.32 3.71 0 0c-1.27,1.36 -2.7,2.41 -4.29,3.16 -1.58,0.75 -3.19,1.12 -4.79,1.12zm32.3 -0.42l0 -28.7 5.06 0 0 28.7 -5.06 0zm-6.41 -8.98c-3,0 -5.32,-0.99 -6.97,-2.97 -1.64,-1.98 -2.48,-4.78 -2.48,-8.39l0 -8.35 5.07 0 0 8.54c0,1.79 0.41,3.17 1.22,4.15 0.81,0.97 1.94,1.46 3.4,1.46 1.96,0 3.49,-0.54 4.56,-1.61 1.07,-1.08 1.6,-2.59 1.6,-4.55l0 -2.91 1.58 0 0 2.71c0,3.79 -0.69,6.71 -2.08,8.8 -1.39,2.08 -3.36,3.12 -5.91,3.12zm33.96 8.98l0 -18.19c0,-1.88 -0.46,-3.34 -1.36,-4.38 -0.9,-1.04 -2.18,-1.57 -3.84,-1.57 -1.01,0 -2.01,0.17 -2.99,0.52 -0.98,0.34 -1.87,0.83 -2.65,1.47l-3.69 -2.82c0.98,-1.3 2.26,-2.32 3.86,-3.05 1.6,-0.73 3.37,-1.09 5.33,-1.09 3.23,0 5.72,0.94 7.49,2.79 1.77,1.86 2.66,4.49 2.66,7.88l0 18.44 -4.81 0zm-6.31 0.42c-3.16,0 -5.52,-0.73 -7.11,-2.19 -1.58,-1.45 -2.37,-3.68 -2.37,-6.68 0,-2.86 0.73,-4.99 2.18,-6.41 1.45,-1.4 3.62,-2.12 6.52,-2.12l7.32 0 0.35 4.54 -7.64 0c-1.31,0 -2.3,0.32 -2.96,0.98 -0.66,0.65 -0.99,1.65 -0.99,3 0,1.45 0.44,2.53 1.31,3.23 0.88,0.71 2.19,1.05 3.95,1.05 1.91,0 3.35,-0.23 4.32,-0.7 0.96,-0.45 1.44,-1.18 1.44,-2.15l0.52 4.04c-0.45,0.77 -1,1.4 -1.66,1.91 -0.66,0.49 -1.42,0.87 -2.27,1.11 -0.86,0.26 -1.82,0.38 -2.9,0.38zm23.31 -0.42l0 -25.69 5.07 0 0 25.69 -5.07 0zm-7.47 -23.61l0 -5.09 20.01 0 0 5.09 -20.01 0zm24.98 23.86l0 -5.36c1.32,0 2.35,-0.67 3.08,-2.02 0.74,-1.34 1.11,-3.25 1.11,-5.69l0 -15.88 5.06 0 0 16.65c0,3.93 -0.76,6.96 -2.3,9.1 -1.52,2.14 -3.68,3.2 -6.46,3.2l-0.49 0zm17.3 -0.25l0 -28.7 5.06 0 0 28.7 -5.06 0zm-9.96 -23.34l0 -5.36 12.63 0 0 5.36 -12.63 0zm39.86 13.25l-9.13 0c-2.7,0 -4.86,-0.86 -6.51,-2.56 -1.63,-1.71 -2.47,-3.97 -2.48,-6.77l0 0c0,-2.8 0.82,-5.05 2.47,-6.74 1.64,-1.7 3.81,-2.55 6.52,-2.55l9.13 0 0 5.36 -9.34 0c-1.03,0 -1.85,0.36 -2.47,1.08 -0.62,0.72 -0.93,1.66 -0.93,2.84l0 0c0,1.18 0.31,2.13 0.94,2.87 0.63,0.73 1.45,1.09 2.46,1.09l9.34 0 0 5.37zm2.46 10.09l-5.07 0 0 -28.7 5.07 0 0 28.7zm-15.09 0l-6.01 0 7.24 -12.61 5.04 1.27 -6.28 11.33zm25.99 -11.95l0 -4.81 11.05 0 0 4.81 -11.05 0zm-2.95 11.95l0 -28.7 5.06 0 0 28.7 -5.06 0zm21.64 0.42c-3.37,0 -5.99,-1.09 -7.84,-3.27 -1.85,-2.19 -2.78,-5.26 -2.78,-9.22l0 -4.67c0,-3.92 0.92,-6.97 2.78,-9.12 1.85,-2.16 4.47,-3.24 7.84,-3.24 3.38,0 5.99,1.07 7.85,3.24 1.85,2.15 2.78,5.2 2.78,9.12l0 4.76c0,3.94 -0.92,6.99 -2.78,9.17 -1.86,2.16 -4.47,3.25 -7.85,3.25zm0 -5.36c1.77,0 3.14,-0.62 4.11,-1.86 0.97,-1.23 1.46,-2.96 1.46,-5.19l0 -4.76c0,-2.23 -0.48,-3.95 -1.46,-5.17 -0.97,-1.21 -2.34,-1.83 -4.11,-1.83 -1.76,0 -3.12,0.62 -4.09,1.83 -0.97,1.22 -1.47,2.94 -1.47,5.17l0 4.76c0,2.23 0.49,3.96 1.47,5.19 0.97,1.24 2.34,1.86 4.09,1.86zm20.98 4.94l0 -5.09 25.64 0 0 5.09 -25.64 0zm9.91 0l0 -28.7 5.06 0 0 28.7 -5.06 0zm-13.06 0l0 -28.7 5.06 0 0 28.7 -5.06 0zm30.73 7.22l0 -12.31 5.06 0 0 12.31 -5.06 0zm-4.62 -7.22l0 -28.7 5.06 0 0 28.7 -5.06 0zm36.84 -0.03l-5.02 0 0 -20.38 0.59 0.72 -12.39 19.66 -4.39 0 0 -28.67 5.01 0 0 20.85 -0.6 -0.72 12.44 -20.13 4.35 0 0 28.67zm18.49 0.44c-3.59,0 -6.38,-1.11 -8.35,-3.35 -1.96,-2.23 -2.95,-5.4 -2.95,-9.5l0 -3.24c0,-4.28 0.95,-7.59 2.84,-9.93 1.9,-2.34 4.56,-3.51 8.01,-3.51 3.25,0 5.75,1.33 7.53,3.99 1.78,2.65 2.67,6.38 2.67,11.17l0 1.88 -17.38 0 0 -4.54 12.57 0 0 0c-0.15,-2.32 -0.69,-4.13 -1.63,-5.45 -0.93,-1.31 -2.18,-1.96 -3.76,-1.96 -1.9,0 -3.38,0.7 -4.44,2.1 -1.06,1.4 -1.59,3.38 -1.59,5.95l0 3.64c0,2.38 0.57,4.21 1.7,5.47 1.14,1.27 2.73,1.92 4.78,1.92 1.02,0 2.04,-0.24 3.05,-0.7 1.01,-0.45 1.92,-1.1 2.71,-1.94l0 0 3.32 3.71 0 0c-1.27,1.36 -2.7,2.41 -4.29,3.16 -1.58,0.75 -3.19,1.12 -4.79,1.12z"/>
  <line class="fil0 str1" x1="618.6" y1="346.98" x2="618.6" y2= "645.37" />
  <line class="fil0 str2" x1="714.82" y1="640.99" x2="405.06" y2= "640.99" />
  <rect class="fil0 str6" x="1.25" y="1.25" width="1344.2" height="1410.65"/>
 </g>
</svg>
