<?xml version="1.0" standalone="no"?>
<!DOCTYPE svg PUBLIC "-//W3C//DTD SVG 20010904//EN"
 "http://www.w3.org/TR/2001/REC-SVG-20010904/DTD/svg10.dtd">
<svg version="1.0" xmlns="http://www.w3.org/2000/svg"
 width="509.000000pt" height="376.000000pt" viewBox="0 0 509.000000 376.000000"
 preserveAspectRatio="xMidYMid meet">

<g transform="translate(0.000000,376.000000) scale(0.100000,-0.100000)"
fill="#000000" stroke="none">
<path d="M2817 2636 c-21 -8 -47 -22 -58 -32 -48 -43 -64 -152 -33 -216 16
-33 89 -98 141 -125 110 -57 157 -140 121 -217 -24 -53 -99 -75 -183 -54 l-49
13 -11 62 c-19 104 -31 101 -41 -10 l-7 -77 48 -21 c71 -31 177 -30 235 2 69
39 85 67 85 157 0 100 -17 124 -147 208 -105 68 -138 107 -138 162 0 89 81
135 178 101 26 -9 34 -19 42 -52 17 -65 20 -71 30 -61 5 5 10 36 11 69 l3 60
-37 18 c-50 25 -142 31 -190 13z"/>
<path d="M3260 2628 c-24 -13 -52 -35 -63 -49 -40 -55 -40 -163 0 -218 10 -14
61 -54 113 -88 52 -35 105 -74 116 -87 30 -34 38 -87 20 -130 -22 -52 -58 -71
-132 -70 -88 2 -99 11 -114 89 -7 36 -16 65 -20 65 -4 0 -11 -21 -14 -47 -4
-27 -9 -62 -12 -80 -5 -27 -2 -33 24 -47 81 -42 215 -37 283 9 41 29 57 59 65
119 13 91 -30 159 -142 226 -32 19 -78 54 -101 76 -40 38 -43 45 -43 92 0 73
28 104 101 109 76 5 100 -10 119 -75 8 -29 18 -52 22 -52 8 0 21 100 16 126
-2 13 -20 25 -53 36 -70 24 -132 23 -185 -4z"/>
<path d="M4104 2640 c-75 -17 -130 -68 -171 -155 -26 -56 -28 -68 -28 -195 0
-124 2 -139 26 -190 54 -115 123 -163 235 -162 74 1 132 28 179 84 89 106 110
333 44 473 -54 115 -169 173 -285 145z m109 -51 c73 -38 115 -123 124 -254 16
-231 -79 -389 -210 -346 -44 15 -80 53 -109 116 -21 45 -23 65 -23 195 0 138
1 148 27 200 41 84 125 123 191 89z"/>
<path d="M10 2631 c0 -5 17 -18 38 -28 l37 -18 3 -289 c1 -196 -1 -293 -9
-302 -6 -7 -24 -16 -40 -19 -16 -4 -29 -13 -29 -21 0 -11 22 -14 115 -14 127
0 147 11 75 42 l-40 17 2 293 3 293 38 18 c20 10 37 23 37 28 0 5 -52 9 -115
9 -63 0 -115 -4 -115 -9z"/>
<path d="M302 2629 c2 -7 18 -17 36 -23 17 -6 35 -15 39 -21 4 -5 7 -142 5
-302 l-3 -293 -40 -11 c-21 -7 -39 -18 -39 -26 0 -10 24 -13 104 -13 60 0 108
4 111 10 3 6 -14 19 -39 30 l-45 19 6 248 c3 136 6 249 7 250 1 1 46 -126 100
-283 55 -158 104 -283 109 -281 6 2 54 127 108 279 53 151 99 282 102 289 3 8
6 -104 6 -248 l1 -262 -40 -12 c-22 -7 -40 -18 -40 -26 0 -10 26 -13 120 -13
94 0 120 3 120 13 0 8 -18 21 -40 30 l-40 16 2 297 3 297 34 12 c19 6 37 17
39 24 3 9 -18 11 -85 9 l-88 -3 -85 -253 c-47 -139 -90 -260 -95 -268 -8 -13
-32 45 -101 252 l-91 269 -93 3 c-69 2 -91 0 -88 -9z"/>
<path d="M1092 2629 c2 -7 20 -18 39 -24 l34 -12 3 -293 c1 -199 -1 -297 -9
-306 -6 -7 -24 -16 -40 -19 -16 -4 -29 -13 -29 -21 0 -11 22 -14 115 -14 88 0
115 3 115 13 0 7 -16 19 -35 26 l-35 12 0 125 0 124 63 0 c111 0 183 35 217
106 35 71 20 193 -28 231 -63 50 -92 57 -256 61 -127 4 -158 2 -154 -9z m304
-55 c47 -22 68 -65 69 -139 0 -100 -41 -140 -155 -152 l-60 -6 0 157 0 156 56
0 c31 0 71 -7 90 -16z"/>
<path d="M1610 2631 c0 -7 16 -19 35 -27 l35 -14 0 -299 0 -300 -35 -12 c-19
-7 -35 -19 -35 -26 0 -10 26 -13 110 -13 88 0 110 3 110 14 0 8 -16 20 -35 26
l-35 12 0 124 0 124 45 0 44 0 78 -150 78 -150 67 0 c37 0 69 4 73 10 3 5 -15
20 -41 32 -44 21 -51 32 -110 143 -35 66 -64 122 -64 125 0 3 18 13 40 23 51
24 78 62 91 129 20 98 -20 178 -103 214 -53 22 -348 34 -348 15z m293 -55 c53
-22 71 -50 75 -119 8 -122 -35 -167 -158 -167 l-60 0 0 150 0 150 55 0 c31 0
70 -6 88 -14z"/>
<path d="M2180 2626 c0 -7 15 -17 33 -22 l32 -10 3 -301 2 -301 -35 -12 c-19
-6 -35 -18 -35 -26 0 -12 36 -14 215 -14 l215 0 0 85 c0 47 -4 85 -9 85 -5 0
-18 -26 -28 -57 l-18 -58 -112 -3 -113 -3 0 146 0 145 69 0 68 0 17 -45 c10
-25 22 -45 27 -45 5 0 9 50 9 110 0 119 -10 139 -37 70 l-16 -40 -69 0 -68 0
0 130 0 130 109 0 c121 0 113 5 127 -72 3 -21 10 -38 15 -38 10 0 16 26 23
103 l5 57 -215 0 c-173 0 -214 -3 -214 -14z"/>
<path d="M3600 2629 c0 -5 16 -17 35 -25 l35 -14 0 -299 0 -300 -35 -12 c-19
-7 -35 -19 -35 -26 0 -10 27 -13 115 -13 93 0 115 3 115 14 0 8 -13 17 -29 21
-16 3 -34 12 -40 19 -8 9 -10 107 -9 306 l3 293 34 12 c19 6 37 17 39 23 3 9
-28 12 -112 12 -74 0 -116 -4 -116 -11z"/>
<path d="M4500 2631 c0 -5 17 -18 38 -28 32 -15 37 -23 36 -50 0 -18 -1 -152
-2 -296 l-2 -264 -41 -16 c-63 -25 -40 -37 72 -37 79 0 99 3 99 14 0 8 -13 17
-29 21 -53 11 -54 14 -44 277 l8 243 170 -279 c94 -154 176 -282 183 -284 9
-3 12 55 12 266 0 148 3 297 6 331 7 59 9 63 40 76 60 25 40 35 -66 35 -80 0
-100 -3 -100 -14 0 -8 14 -17 31 -21 17 -4 32 -12 35 -19 2 -6 3 -112 2 -234
l-3 -223 -150 255 -150 256 -72 0 c-40 0 -73 -4 -73 -9z"/>
<path d="M710 1000 l0 -720 -115 0 -115 0 0 -30 0 -30 115 0 115 0 0 -110 0
-110 30 0 30 0 0 110 0 110 1144 0 c1081 0 1144 1 1148 18 12 44 55 42 -1148
42 l-1144 0 0 720 0 720 -30 0 -30 0 0 -720z"/>
<path d="M886 1598 c-23 -32 -21 -110 3 -132 25 -22 84 -18 89 6 3 14 -3 16
-32 11 -32 -5 -37 -3 -46 22 -7 17 -7 38 -2 54 7 21 16 26 43 27 53 2 55 4 35
19 -29 22 -72 19 -90 -7z"/>
<path d="M1040 1600 c-25 -25 -27 -95 -4 -128 18 -26 65 -30 88 -6 23 23 22
116 -2 137 -25 23 -58 21 -82 -3z m68 -22 c14 -14 16 -67 3 -86 -4 -8 -19 -12
-32 -10 -20 2 -25 10 -27 42 -2 21 -1 44 2 52 7 17 38 18 54 2z"/>
<path d="M1195 1598 c-11 -17 -12 -24 -3 -27 7 -2 14 1 16 8 2 6 15 11 28 11
17 0 24 -6 24 -20 0 -13 -7 -20 -20 -20 -11 0 -20 -7 -20 -15 0 -8 9 -15 19
-15 28 0 37 -21 16 -36 -13 -10 -23 -10 -37 -3 -25 13 -35 4 -18 -16 15 -18
61 -20 78 -3 15 15 16 54 2 63 -7 4 -7 12 0 25 14 26 13 36 -6 54 -22 23 -60
20 -79 -6z"/>
<path d="M1350 1555 c0 -49 -4 -67 -15 -71 -9 -4 -15 -19 -15 -40 0 -37 15
-46 23 -14 4 17 14 20 57 20 43 0 53 -3 57 -20 9 -32 23 -23 23 15 0 24 -5 35
-15 35 -12 0 -15 14 -15 70 l0 70 -50 0 -50 0 0 -65z m80 -20 c0 -55 0 -55
-31 -55 -28 0 -31 3 -25 23 3 12 6 37 6 55 0 27 3 32 25 32 24 0 25 -3 25 -55z"/>
<path d="M1543 1613 c-25 -9 -13 -22 24 -25 27 -2 39 -8 41 -20 3 -14 -3 -18
-27 -18 -41 0 -75 -33 -65 -63 9 -30 22 -37 72 -35 l42 1 0 68 c0 48 -5 72
-16 83 -15 16 -46 20 -71 9z m65 -115 c-2 -18 -10 -23 -33 -23 -23 0 -31 5
-33 23 -3 19 1 22 33 22 32 0 36 -3 33 -22z"/>
<path d="M1700 1600 c-25 -25 -27 -95 -4 -128 12 -18 24 -22 52 -20 50 4 51
32 2 32 -25 1 -36 6 -38 19 -3 14 4 17 42 17 44 0 46 1 46 28 0 63 -58 94
-100 52z m70 -30 c10 -18 8 -20 -25 -20 -22 0 -35 5 -35 13 0 33 44 37 60 7z"/>
<path d="M1850 1535 c0 -92 17 -118 22 -32 l3 52 17 -37 c9 -21 21 -38 26 -38
4 0 17 17 28 38 l19 37 3 -52 c5 -86 22 -60 22 32 0 99 -16 113 -47 40 -10
-25 -20 -45 -24 -45 -3 0 -15 20 -27 45 -12 25 -26 45 -32 45 -6 0 -10 -34
-10 -85z"/>
<path d="M2120 1535 l0 -85 48 0 c26 0 53 5 60 12 17 17 15 55 -4 66 -14 8
-14 10 0 21 19 16 21 42 4 59 -7 7 -34 12 -60 12 l-48 0 0 -85z m90 35 c0 -16
-7 -20 -30 -20 -23 0 -30 4 -30 20 0 16 7 20 30 20 23 0 30 -4 30 -20z m0 -55
c17 -20 4 -35 -31 -35 -21 0 -29 5 -29 18 0 10 3 22 7 25 11 12 40 8 53 -8z"/>
<path d="M2290 1535 c0 -101 18 -115 22 -17 l3 67 38 3 37 3 0 -70 c0 -41 4
-71 10 -71 6 0 10 35 10 85 l0 85 -60 0 -60 0 0 -85z"/>
<path d="M2480 1600 c-25 -25 -27 -95 -4 -128 12 -18 24 -22 52 -20 50 4 51
32 2 32 -25 1 -36 6 -38 19 -3 14 4 17 42 17 44 0 46 1 46 30 0 34 -31 70 -60
70 -11 0 -29 -9 -40 -20z m70 -30 c10 -18 8 -20 -25 -20 -22 0 -35 5 -35 13 0
33 44 37 60 7z"/>
<path d="M2630 1575 c0 -36 5 -48 24 -60 19 -13 29 -14 45 -5 19 10 21 8 21
-25 0 -24 4 -35 15 -35 12 0 15 16 15 85 0 67 -3 85 -14 85 -10 0 -16 -13 -18
-36 -4 -47 -32 -68 -54 -40 -8 11 -14 32 -14 48 0 15 -4 28 -10 28 -5 0 -10
-20 -10 -45z"/>
<path d="M2810 1605 c-11 -13 -7 -15 28 -15 27 0 42 -5 46 -16 9 -24 9 -24
-28 -24 -55 0 -80 -36 -56 -81 9 -16 20 -19 60 -18 l50 2 0 68 c0 48 -5 72
-16 83 -20 20 -68 21 -84 1z m80 -105 c0 -12 -9 -22 -24 -26 -31 -7 -46 1 -46
27 0 15 7 19 35 19 28 0 35 -4 35 -20z"/>
<path d="M2940 1605 c0 -9 9 -15 25 -15 24 0 25 -2 25 -71 0 -52 3 -70 13 -67
7 3 13 29 15 71 3 59 5 67 22 67 11 0 20 7 20 15 0 12 -13 15 -60 15 -47 0
-60 -3 -60 -15z"/>
<path d="M3120 1561 c0 -40 -5 -65 -15 -75 -19 -18 -19 -36 -1 -36 23 0 35 24
42 83 6 51 9 57 30 57 23 0 24 -3 24 -70 0 -40 4 -70 10 -70 6 0 10 35 10 85
l0 85 -50 0 -50 0 0 -59z"/>
<path d="M3286 1604 c-20 -20 -20 -58 -1 -78 14 -14 14 -18 0 -46 -14 -26 -14
-30 -1 -30 9 0 22 14 31 30 9 17 22 30 30 30 10 0 15 -10 15 -30 0 -20 5 -30
15 -30 12 0 15 16 15 85 l0 85 -44 0 c-27 0 -51 -6 -60 -16z m74 -39 c0 -20
-5 -25 -24 -25 -14 0 -28 5 -31 10 -12 19 4 40 30 40 20 0 25 -5 25 -25z"/>
<path d="M3440 1535 c0 -69 3 -85 15 -85 10 0 15 11 15 35 0 28 4 35 20 35 13
0 20 -7 20 -19 0 -49 76 -70 104 -29 9 12 16 41 16 63 0 52 -23 85 -59 85 -30
0 -61 -27 -61 -53 0 -10 -8 -17 -20 -17 -16 0 -20 7 -20 35 0 24 -5 35 -15 35
-12 0 -15 -16 -15 -85z m155 0 c0 -40 -4 -50 -18 -53 -27 -5 -47 17 -47 52 0
38 17 58 45 54 17 -3 20 -11 20 -53z"/>
<path d="M3680 1535 l0 -85 90 0 c83 0 90 -1 90 -20 0 -11 7 -20 15 -20 10 0
15 11 15 35 0 24 -5 35 -15 35 -12 0 -15 14 -15 70 0 56 -3 70 -15 70 -12 0
-15 -14 -15 -70 0 -68 -1 -70 -25 -70 -24 0 -25 2 -25 70 0 40 -4 70 -10 70
-6 0 -10 -30 -10 -70 l0 -70 -30 0 -30 0 0 70 c0 40 -4 70 -10 70 -6 0 -10
-35 -10 -85z"/>
<path d="M3930 1535 c0 -50 4 -85 10 -85 5 0 25 22 42 50 18 27 36 50 41 50 4
0 7 -22 7 -50 0 -27 5 -50 10 -50 6 0 10 35 10 85 0 48 -4 85 -10 85 -5 0 -26
-26 -47 -57 l-38 -58 -3 58 c-5 89 -22 67 -22 -28z"/>
<path d="M4120 1600 c-25 -25 -27 -95 -4 -128 16 -23 57 -29 83 -13 22 14 5
28 -28 23 -22 -3 -32 1 -40 17 -11 20 -9 21 40 21 l52 0 -6 37 c-10 61 -58 82
-97 43z m70 -30 c10 -18 8 -20 -30 -20 -38 0 -40 2 -30 20 6 11 19 20 30 20
11 0 24 -9 30 -20z"/>
<path d="M870 1215 c0 -104 11 -109 60 -28 l35 58 3 -58 c2 -42 7 -57 17 -57
12 0 15 17 15 85 0 105 -13 110 -64 28 l-35 -58 -1 58 c0 44 -3 57 -15 57 -12
0 -15 -16 -15 -85z"/>
<path d="M1050 1215 c0 -50 4 -85 10 -85 6 0 10 16 10 35 0 34 1 35 40 35 39
0 40 -1 40 -35 0 -19 5 -35 10 -35 6 0 10 35 10 85 0 50 -4 85 -10 85 -5 0
-10 -16 -10 -35 0 -34 -1 -35 -40 -35 -39 0 -40 1 -40 35 0 19 -4 35 -10 35
-6 0 -10 -35 -10 -85z"/>
<path d="M1210 1289 c0 -6 9 -13 20 -16 18 -5 20 -14 20 -74 0 -55 3 -69 15
-69 12 0 15 14 15 70 0 63 2 70 20 70 11 0 20 7 20 15 0 12 -13 15 -55 15 -33
0 -55 -4 -55 -11z"/>
<path d="M1370 1285 c-7 -8 -15 -34 -17 -58 -8 -71 43 -116 98 -86 24 12 15
32 -12 24 -29 -9 -59 4 -59 26 0 16 7 19 45 19 40 0 45 2 45 23 0 55 -68 90
-100 52z m64 -21 c25 -24 19 -34 -19 -34 -36 0 -46 15 -23 38 16 16 23 15 42
-4z"/>
<path d="M1520 1178 c0 -91 3 -119 13 -116 6 3 14 24 17 49 3 27 8 39 13 32
13 -20 44 -15 61 9 18 25 21 84 6 122 -8 23 -14 26 -60 25 l-50 -2 0 -119z
m79 88 c7 -8 11 -34 9 -58 -3 -38 -6 -43 -28 -43 -23 0 -25 4 -28 49 -2 32 1
52 10 57 18 12 24 11 37 -5z"/>
<path d="M1690 1214 l0 -87 46 6 c50 5 64 18 64 58 0 34 -17 49 -57 49 -30 0
-33 3 -33 30 0 17 -4 30 -10 30 -6 0 -10 -35 -10 -86z m78 -26 c-2 -17 -11
-24 -30 -26 -24 -3 -28 0 -28 22 0 22 4 26 31 26 26 0 30 -3 27 -22z"/>
<path d="M1854 1263 c-35 -82 20 -159 87 -122 26 14 14 31 -17 23 -26 -7 -54
10 -54 32 0 10 14 14 49 14 l49 0 -8 36 c-10 42 -23 54 -63 54 -23 0 -31 -7
-43 -37z m76 -2 c15 -29 13 -31 -25 -31 -39 0 -48 21 -17 39 24 15 30 14 42
-8z"/>
<path d="M2010 1179 c0 -99 3 -119 15 -119 11 0 15 12 15 47 0 37 3 44 12 35
35 -35 78 7 78 76 0 68 -12 82 -70 81 l-50 -2 0 -118z m79 87 c7 -8 11 -34 9
-58 -3 -38 -6 -43 -28 -43 -23 0 -25 4 -28 49 -2 32 1 52 10 57 18 12 24 11
37 -5z"/>
<path d="M2180 1215 l0 -85 35 0 c36 0 75 28 75 53 0 27 -31 57 -61 57 -26 0
-29 3 -29 30 0 17 -4 30 -10 30 -6 0 -10 -35 -10 -85z m75 -30 c0 -31 -49 -28
-53 3 -3 20 0 23 25 20 20 -2 28 -8 28 -23z"/>
<path d="M2312 1218 c2 -54 7 -83 16 -86 9 -3 12 18 12 82 0 71 -3 86 -15 86
-13 0 -15 -14 -13 -82z"/>
</g>
</svg>
