<?xml version="1.0" encoding="UTF-8"?>
<!DOCTYPE svg PUBLIC "-//W3C//DTD SVG 1.1//EN" "http://www.w3.org/Graphics/SVG/1.1/DTD/svg11.dtd">
<!-- Creator: CorelDRAW -->
<svg xmlns="http://www.w3.org/2000/svg" xml:space="preserve" width="52.2018mm" height="43.1528mm" version="1.1" style="shape-rendering:geometricPrecision; text-rendering:geometricPrecision; image-rendering:optimizeQuality; fill-rule:evenodd; clip-rule:evenodd"
viewBox="0 0 4784.91 3955.47"
 xmlns:xlink="http://www.w3.org/1999/xlink"
 xmlns:xodm="http://www.corel.com/coreldraw/odm/2003">
 <defs>
  <style type="text/css">
   <![CDATA[
    .str4 {stroke:#C1B4AB;stroke-width:183.32;stroke-miterlimit:22.9256}
    .str5 {stroke:#C1B4AB;stroke-width:183.32;stroke-miterlimit:22.9256}
    .str1 {stroke:#C1B4AB;stroke-width:45.83;stroke-miterlimit:22.9256}
    .str2 {stroke:#C1B4AB;stroke-width:45.83;stroke-miterlimit:22.9256}
    .str6 {stroke:#373435;stroke-width:6.98;stroke-miterlimit:22.9256}
    .str3 {stroke:#C1B4AB;stroke-width:6.98;stroke-miterlimit:22.9256}
    .str0 {stroke:#C1B4AB;stroke-width:45.83;stroke-miterlimit:22.9256;stroke-dasharray:91.661867 45.830934}
    .fil0 {fill:none}
    .fil1 {fill:#C1B4AB;fill-rule:nonzero}
   ]]>
  </style>
 </defs>
 <g id="Слой_x0020_1">
  <metadata id="CorelCorpID_0Corel-Layer"/>
  <path class="fil0 str0" d="M3499.27 2665.63c-536.23,-46.79 -765.72,249.34 -769.65,645.71"/>
  <line class="fil0 str1" x1="949.48" y1="1268.1" x2="949.48" y2= "577.1" />
  <line class="fil0 str2" x1="2748.33" y1="3295" x2="739.78" y2= "3295" />
  <line class="fil0 str2" x1="942.61" y1="2152.26" x2="942.61" y2= "3488.8" />
  <path class="fil0 str2" d="M3442.13 2569.13c0,243.46 0,486.92 0,730.37 177.03,0 431.59,0 608.62,0"/>
  <path class="fil1 str3" d="M439.19 1944.14l-58.94 21.38 0 12.22 173.39 0 0 -12.22 -58.25 -21.38 0 -467.21 58.25 -21.38 0 -12.22 -173.39 0 0 12.22 58.94 21.38 0 467.21zm227.54 0l-63.05 21.38 0 12.22 163.8 0 0 -12.22 -63.05 -21.38 2.74 -426.76 161.75 467.99 14.4 0 163.1 -466.46 4.12 425.23 -64.43 21.38 0 12.22 184.36 0 0 -12.98 -63.05 -20.61 -4.8 -467.21 61.69 -20.62 0 -12.97 -128.17 0 -147.35 433.62 -146.67 -433.62 -133.64 0 0 12.22 63.05 21.38 -4.79 467.21zm611.34 0l-58.95 21.38 0 12.22 173.4 0 0 -12.98 -58.26 -20.61 0 -193.15 45.24 0c114.45,0 192.58,-43.51 192.58,-155.73 0,-110.7 -75.39,-151.92 -191.9,-151.92l-161.06 0 0 12.22 58.95 21.38 0 467.21zm56.19 -468.74l45.24 0c82.23,0 131.59,31.3 131.59,122.15 0,89.32 -50.73,121.38 -130.91,121.38l-45.92 0 0 -243.53zm343.37 468.74l-56.89 21.38 0 12.22 170.65 0 0 -12.98 -57.56 -20.61 0 -196.96 53.46 0c6.85,0 13.7,0 19.87,-0.77l117.2 231.33 108.97 0 0 -12.22 -63.73 -21.38 -106.91 -205.36c66.47,-17.56 108.97,-62.61 108.97,-148.11 0,-106.88 -74.03,-147.34 -188.47,-147.34l-162.43 0 0 12.22 56.89 21.38 0 467.21zm56.2 -468.74l47.98 0c78.81,0 128.85,28.24 128.85,116.8 0,91.61 -43.18,122.91 -117.9,122.91l-58.93 0 0 -239.71zm385.86 468.74l-58.95 21.38 0 12.22 331.72 0 0 -125.2 -10.28 0 -26.73 93.14 -179.57 0 0 -228.27 111.02 0 23.99 66.42 10.28 0 0 -164.9 -10.97 0 -23.3 66.41 -111.02 0 0 -209.93 175.45 0 18.5 86.26 10.97 0 10.28 -118.33 -330.34 0 0 12.22 58.95 21.38 0 467.21zm580.49 -85.5c0,58.02 -33.58,93.14 -104.86,93.14 -31.52,0 -63.05,-6.1 -89.1,-19.85l-17.82 -100.76 -9.6 0 -15.76 116.8c32.21,25.2 87.03,37.42 134.33,37.42 90.46,0 154.2,-46.57 154.2,-138.95 0,-86.26 -36.33,-113.75 -135.71,-172.54 -67.16,-40.46 -91.15,-67.94 -91.15,-113.75 0,-61.83 32.21,-90.85 91.84,-90.85 28.09,0 52.77,6.11 75.39,16.04l21.93 86.26 8.21 0 9.61 -103.83c-21.93,-16.79 -67.86,-32.06 -117.89,-32.06 -81.56,0 -139.81,41.99 -139.81,135.89 0,74.81 40.44,112.22 106.91,149.63 91.85,51.15 119.25,83.22 119.25,137.42zm354.33 0c0,58.02 -33.58,93.14 -104.86,93.14 -31.52,0 -63.05,-6.1 -89.09,-19.85l-17.83 -100.76 -9.6 0 -15.76 116.8c32.21,25.2 87.04,37.42 134.33,37.42 90.46,0 154.2,-46.57 154.2,-138.95 0,-86.26 -36.33,-113.75 -135.71,-172.54 -67.16,-40.46 -91.15,-67.94 -91.15,-113.75 0,-61.83 32.21,-90.85 91.85,-90.85 28.09,0 52.76,6.11 75.38,16.04l21.93 86.26 8.22 0 9.6 -103.83c-21.93,-16.79 -67.85,-32.06 -117.89,-32.06 -81.55,0 -139.81,41.99 -139.81,135.89 0,74.81 40.44,112.22 106.92,149.63 91.83,51.15 119.24,83.22 119.24,137.42zm169.28 85.5l-58.94 21.38 0 12.22 173.4 0 0 -12.22 -58.25 -21.38 0 -467.21 58.25 -21.38 0 -12.22 -173.4 0 0 12.22 58.94 21.38 0 467.21zm380.38 -507.68c-129.53,0 -207.66,106.88 -207.66,274.07 0,174.83 82.93,274.84 203.55,274.84 121.31,0 204.23,-101.54 204.23,-282.47 0,-161.08 -81.55,-266.43 -200.13,-266.43zm-4.8 32.07c91.85,0 141.19,103.82 141.19,242 0,135.13 -45.24,243.54 -136.38,243.54 -95.26,0 -143.93,-115.27 -143.93,-251.93 0,-130.54 43.87,-233.6 139.12,-233.6zm648.35 516.84l4.8 -508.44 58.93 -21.38 0 -12.22 -154.88 0 0 12.97 58.25 20.62 -2.05 372.54 -239.19 -406.14 -108.97 0 0 12.22 58.94 21.38 -5.48 467.21 -58.26 21.38 0 12.22 154.21 0 0 -12.98 -58.26 -20.61 2.74 -409.2 274.14 450.43 15.08 0z"/>
  <path class="fil1" d="M1144.6 2611.06l-23.38 0 0 -94.99 2.77 3.34 -57.75 91.65 -20.46 0 0 -133.66 23.37 0 0 97.19 -2.8 -3.35 57.98 -93.84 20.27 0 0 133.66zm112.93 0.13l0 -133.79 23.58 0 0 133.79 -23.58 0zm-75.91 0l0 -133.79 23.58 0 0 133.79 -23.58 0zm14.69 -53.89l0 -23.72 73.7 0 0 23.72 -73.7 0zm142.78 53.89l0 -119.76 23.62 0 0 119.76 -23.62 0zm-34.83 -110.08l0 -23.71 93.29 0 0 23.71 -93.29 0zm165.61 112.02c-16.74,0 -29.7,-5.2 -38.9,-15.62 -9.16,-10.39 -13.74,-25.17 -13.74,-44.31l0 -15.09c0,-19.94 4.43,-35.38 13.23,-46.29 8.85,-10.91 21.29,-16.36 37.32,-16.36 15.12,0 26.82,6.2 35.12,18.56 8.3,12.37 12.45,29.74 12.45,52.09l0 8.76 -81.01 0 0 -21.16 58.58 0 0 0c-0.72,-10.83 -3.24,-19.28 -7.6,-25.39 -4.34,-6.11 -10.18,-9.15 -17.53,-9.15 -8.85,0 -15.76,3.25 -20.7,9.81 -4.93,6.51 -7.42,15.76 -7.42,27.72l0 16.98c0,11.08 2.65,19.62 7.95,25.52 5.28,5.94 12.71,8.93 22.26,8.93 4.78,0 9.52,-1.1 14.23,-3.25 4.69,-2.11 8.93,-5.14 12.64,-9.02l0 0 15.48 17.29 0 0c-5.92,6.34 -12.6,11.27 -20.03,14.74 -7.38,3.48 -14.84,5.24 -22.32,5.24zm77.89 52.44l0 -188.17 23.58 0 0 188.17 -23.58 0zm53.8 -52.44c-7.46,0 -13.98,-1.98 -19.55,-5.99 -5.56,-4.01 -9.63,-9.68 -12.28,-16.98l1.62 -27.94c0,5.77 0.94,10.64 2.8,14.69 1.86,4.01 4.51,7.13 8.02,9.29 3.52,2.11 7.78,3.22 12.81,3.22 7.77,0 13.82,-2.64 18.13,-7.92 4.26,-5.29 6.4,-12.76 6.4,-22.4l0 -28.99c0,-9.76 -2.14,-17.38 -6.4,-22.8 -4.31,-5.4 -10.36,-8.13 -18.13,-8.13 -5.02,0 -9.29,1.05 -12.81,3.08 -3.51,2.06 -6.16,5.11 -8.02,9.02 -1.85,3.96 -2.8,8.8 -2.8,14.47l-2.42 -25.78c3.64,-7.83 8.38,-13.86 14.23,-18.13 5.88,-4.26 12.4,-6.37 19.55,-6.37 12.92,0 22.83,4.75 29.86,14.25 7.03,9.5 10.55,22.92 10.55,40.26l0 29.12c0,17.11 -3.63,30.4 -10.91,39.86 -7.23,9.46 -17.46,14.17 -30.65,14.17zm86.58 -1.94l0 -24.99 42.35 0c4.78,0 8.61,-1.67 11.52,-5.06 2.89,-3.35 4.31,-7.75 4.31,-13.25l0 0c0,-5.58 -1.42,-10.07 -4.31,-13.42 -2.91,-3.35 -6.75,-5.01 -11.52,-5.01l-42.35 0 0 -25.03 41.43 0c12.56,0 22.68,4.01 30.29,11.93 7.66,7.96 11.49,18.47 11.58,31.54l0 0c0,12.98 -3.83,23.41 -11.46,31.38 -7.62,7.96 -17.77,11.92 -30.41,11.92l-41.43 0zm-11.46 0l0 -133.79 23.58 0 0 133.79 -23.58 0zm174.63 1.94c-16.75,0 -29.71,-5.2 -38.91,-15.62 -9.17,-10.39 -13.74,-25.17 -13.74,-44.31l0 -15.09c0,-19.94 4.42,-35.38 13.23,-46.29 8.85,-10.91 21.29,-16.36 37.32,-16.36 15.13,0 26.82,6.2 35.12,18.56 8.3,12.37 12.45,29.74 12.45,52.09l0 8.76 -81.02 0 0 -21.16 58.58 0 0 0c-0.71,-10.83 -3.24,-19.28 -7.58,-25.39 -4.34,-6.11 -10.19,-9.15 -17.54,-9.15 -8.84,0 -15.76,3.25 -20.7,9.81 -4.94,6.51 -7.42,15.76 -7.42,27.72l0 16.98c0,11.08 2.65,19.62 7.95,25.52 5.28,5.94 12.7,8.93 22.27,8.93 4.78,0 9.51,-1.1 14.22,-3.25 4.69,-2.11 8.93,-5.14 12.64,-9.02l0 0 15.48 17.29 0 0c-5.92,6.34 -12.6,11.27 -20.03,14.74 -7.38,3.48 -14.84,5.24 -22.31,5.24zm77.89 52.44l0 -188.17 23.58 0 0 188.17 -23.58 0zm53.8 -52.44c-7.47,0 -13.98,-1.98 -19.55,-5.99 -5.56,-4.01 -9.63,-9.68 -12.28,-16.98l1.62 -27.94c0,5.77 0.94,10.64 2.8,14.69 1.86,4.01 4.51,7.13 8.02,9.29 3.52,2.11 7.78,3.22 12.81,3.22 7.77,0 13.82,-2.64 18.13,-7.92 4.26,-5.29 6.4,-12.76 6.4,-22.4l0 -28.99c0,-9.76 -2.14,-17.38 -6.4,-22.8 -4.31,-5.4 -10.36,-8.13 -18.13,-8.13 -5.02,0 -9.29,1.05 -12.81,3.08 -3.51,2.06 -6.16,5.11 -8.02,9.02 -1.85,3.96 -2.8,8.8 -2.8,14.47l-2.42 -25.78c3.64,-7.83 8.38,-13.86 14.23,-18.13 5.88,-4.26 12.4,-6.37 19.55,-6.37 12.92,0 22.82,4.75 29.86,14.25 7.03,9.5 10.55,22.92 10.55,40.26l0 29.12c0,17.11 -3.64,30.4 -10.92,39.86 -7.22,9.46 -17.45,14.17 -30.64,14.17zm181.57 -1.94l0 -133.79 23.62 0 0 133.79 -23.62 0zm-94.99 0l0 -24.99 36.57 0c4.78,0 8.62,-1.67 11.49,-5.06 2.88,-3.35 4.34,-7.75 4.34,-13.25l0 0c0,-5.58 -1.47,-10.07 -4.34,-13.42 -2.88,-3.35 -6.72,-5.01 -11.49,-5.01l-36.57 0 0 -25.03 35.63 0c12.56,0 22.67,4.01 30.33,11.93 7.62,7.96 11.49,18.47 11.57,31.54l0 0c0,12.98 -3.83,23.41 -11.45,31.38 -7.66,7.96 -17.82,11.92 -30.45,11.92l-35.63 0zm-11.46 0l0 -133.79 23.58 0 0 133.79 -23.58 0z"/>
  <path class="fil1" d="M1094.24 2367.29c-16.51,0 -29.27,-5.06 -38.35,-15.23 -9.06,-10.12 -13.58,-24.41 -13.58,-42.9l0 -22.04c0,-18.3 4.53,-32.48 13.58,-42.5 9.08,-9.99 21.84,-15.01 38.35,-15.01 9.45,0 17.89,1.85 25.48,5.55 7.54,3.69 13.58,8.97 18.05,15.84l0 0 -17.03 17.03 0 0c-3.32,-4.32 -7.23,-7.62 -11.81,-9.95 -4.55,-2.29 -9.32,-3.48 -14.34,-3.48 -9.08,0 -16.16,2.87 -21.17,8.54 -5.01,5.67 -7.5,13.64 -7.5,23.98l0 22.04c0,10.57 2.48,18.7 7.5,24.46 5.01,5.77 12.09,8.67 21.17,8.67 5.01,0 9.79,-1.27 14.34,-3.74 4.57,-2.51 8.49,-6.03 11.81,-10.61l0 0 17.03 18.3 0 0c-4.46,6.73 -10.5,11.88 -18.13,15.54 -7.58,3.65 -16.04,5.49 -25.4,5.49zm115.6 0c-15.76,0 -27.92,-5.1 -36.56,-15.26 -8.65,-10.21 -12.95,-24.51 -12.95,-42.99l0 -21.78c0,-18.3 4.3,-32.51 12.95,-42.54 8.64,-10.08 20.81,-15.1 36.56,-15.1 15.73,0 27.93,5.01 36.58,15.1 8.62,10.03 12.96,24.24 12.96,42.54l0 22.17c0,18.35 -4.34,32.6 -12.96,42.72 -8.65,10.07 -20.85,15.13 -36.58,15.13zm0 -24.99c8.27,0 14.62,-2.91 19.17,-8.67 4.5,-5.77 6.76,-13.81 6.76,-24.2l0 -22.17c0,-10.43 -2.25,-18.43 -6.76,-24.11 -4.55,-5.67 -10.9,-8.54 -19.17,-8.54 -8.17,0 -14.52,2.87 -19.1,8.54 -4.55,5.67 -6.79,13.68 -6.79,24.11l0 22.17c0,10.39 2.25,18.43 6.79,24.2 4.58,5.77 10.94,8.67 19.1,8.67zm120.72 24.99c-12.65,0 -22.91,-3.47 -30.77,-10.38 -7.89,-6.91 -12.64,-16.67 -14.25,-29.3l0 0 22.91 0 0 0c0.87,4.97 3.19,8.84 7.03,11.57 3.79,2.77 8.73,4.13 14.73,4.13 6.72,0 11.93,-1.62 15.64,-4.89 3.68,-3.29 5.54,-7.92 5.54,-13.94l0 -0.14c0,-4.61 -1.3,-8.22 -3.99,-10.83 -2.65,-2.55 -6.43,-3.87 -11.38,-3.87l-18.89 0 0 -22.39 18.89 0c3.58,0 6.43,-1.36 8.41,-4 2.03,-2.69 3.04,-6.43 3.04,-11.22l0 -0.14c0,-5.86 -1.62,-10.34 -4.82,-13.55 -3.2,-3.17 -7.78,-4.76 -13.7,-4.76 -5.49,0 -10.07,1.37 -13.79,4.13 -3.71,2.73 -6.2,6.61 -7.5,11.58l0 0 -22.8 0 0 0c2.22,-12.63 7.27,-22.4 15.13,-29.3 7.9,-6.91 17.89,-10.39 29.97,-10.39 13.12,0 23.27,3.13 30.38,9.41 7.15,6.25 10.71,15.14 10.71,26.54l0 0.13c0,7.31 -1.59,13.64 -4.74,18.96 -3.16,5.33 -7.58,9.24 -13.31,11.75 7.03,1.1 12.43,4.22 16.27,9.32 3.83,5.11 5.73,11.79 5.73,20.06l0 0.13c0,13.12 -3.88,23.32 -11.66,30.53 -7.74,7.21 -18.68,10.83 -32.78,10.83zm73.59 -12.23l-8.1 -13.42 2.77 0c4.86,0 8.52,-1.49 11.02,-4.45 2.45,-3 4.12,-7.61 4.98,-13.86 0.83,-6.3 1.26,-14.3 1.26,-24.11l0 -67.66 23.62 0 0 76.42c0,15.57 -2.89,27.28 -8.58,35.2 -5.72,7.92 -13.78,11.88 -24.21,11.88l-2.76 0zm-12.37 43.95l0 -57.37 23.58 0 0 57.37 -23.58 0zm0 -33.66l0 -23.71 115.58 0 0 23.71 -115.58 0zm105.97 33.66l0 -57.37 23.62 0 0 57.37 -23.62 0zm-21.4 -33.66l0 -133.79 23.62 0 0 133.79 -23.62 0zm-45.58 -110.09l0 -23.7 53.44 0 0 23.7 -53.44 0zm186.2 110.09l0 -84.82c0,-8.76 -2.14,-15.58 -6.32,-20.41 -4.23,-4.85 -10.16,-7.31 -17.89,-7.31 -4.69,0 -9.37,0.79 -13.94,2.42 -4.58,1.59 -8.69,3.87 -12.32,6.87l-17.22 -13.16c4.54,-6.07 10.54,-10.83 17.97,-14.21 7.46,-3.39 15.72,-5.11 24.85,-5.11 15.03,0 26.65,4.36 34.9,13.03 8.26,8.66 12.4,20.94 12.4,36.74l0 85.97 -22.43 0zm-29.43 1.93c-14.73,0 -25.75,-3.38 -33.14,-10.2 -7.35,-6.78 -11.06,-17.16 -11.06,-31.16 0,-13.33 3.39,-23.27 10.15,-29.87 6.76,-6.55 16.87,-9.85 30.39,-9.85l34.12 0 1.63 21.16 -35.63 0c-6.12,0 -10.71,1.49 -13.79,4.57 -3.08,3.03 -4.63,7.7 -4.63,13.99 0,6.78 2.05,11.79 6.12,15.05 4.11,3.3 10.23,4.92 18.41,4.92 8.92,0 15.63,-1.09 20.14,-3.25 4.45,-2.11 6.72,-5.5 6.72,-10.03l2.41 18.84c-2.09,3.6 -4.67,6.54 -7.75,8.88 -3.08,2.28 -6.64,4.04 -10.59,5.19 -3.99,1.19 -8.49,1.76 -13.51,1.76zm136.91 0c-16.75,0 -29.72,-5.19 -38.91,-15.62 -9.17,-10.38 -13.74,-25.17 -13.74,-44.3l0 -15.1c0,-19.93 4.42,-35.37 13.23,-46.28 8.85,-10.92 21.29,-16.37 37.32,-16.37 15.13,0 26.81,6.21 35.12,18.57 8.3,12.36 12.44,29.74 12.44,52.09l0 8.75 -81.01 0 0 -21.16 58.58 0 0 0c-0.71,-10.83 -3.24,-19.27 -7.59,-25.38 -4.34,-6.12 -10.18,-9.16 -17.53,-9.16 -8.85,0 -15.76,3.26 -20.7,9.82 -4.94,6.51 -7.42,15.75 -7.42,27.72l0 16.98c0,11.08 2.65,19.62 7.94,25.52 5.29,5.93 12.71,8.93 22.28,8.93 4.78,0 9.51,-1.1 14.22,-3.25 4.69,-2.12 8.92,-5.15 12.64,-9.03l0 0 15.47 17.3 0 0c-5.91,6.33 -12.59,11.27 -20.02,14.74 -7.39,3.47 -14.85,5.23 -22.31,5.23zm134.33 -61.73l35.54 -74 20.94 0 0 133.79 -21.29 0 0 -94.47 1.15 8.23 -29.27 60.19 -14.11 0 -29.26 -60.19 1.15 -8.23 0 94.47 -21.29 0 0 -133.79 20.94 0 35.51 74zm171.02 59.79l0 -23.71 44.44 0c4.7,0 8.33,-1.49 10.9,-4.45 2.53,-3 3.79,-7.09 3.79,-12.32l0 -0.39c0,-5.59 -1.26,-9.9 -3.79,-13.03 -2.57,-3.08 -6.2,-4.62 -10.9,-4.62l-44.44 0 0 -23.71 44.44 0c8.33,0 12.52,-4.32 12.52,-12.9l0 0c0,-9.98 -4.11,-14.96 -12.28,-14.96l-44.68 0 0 -23.7 45.5 0c11.26,0 19.95,2.9 26.08,8.7 6.16,5.82 9.19,14 9.19,24.56l0 0c0,8.05 -2.25,14.79 -6.83,20.11 -4.54,5.33 -10.94,8.71 -19.19,10.16 8.96,1.9 15.88,5.99 20.81,12.19 4.94,6.24 7.43,14.03 7.43,23.41l0 0.39c0,10.91 -3.32,19.36 -9.92,25.3 -6.6,5.99 -15.89,8.97 -27.93,8.97l-45.14 0zm-13.86 0l0 -133.79 23.46 0 0 133.79 -23.46 0zm204 0l0 -133.79 23.58 0 0 133.79 -23.58 0zm-75.91 0l0 -133.79 23.58 0 0 133.79 -23.58 0zm14.69 -108.81l0 -24.98 73.71 0 0 24.98 -73.71 0zm171.03 110.75c-16.75,0 -29.71,-5.19 -38.91,-15.62 -9.17,-10.38 -13.74,-25.17 -13.74,-44.3l0 -15.1c0,-19.93 4.43,-35.37 13.23,-46.28 8.85,-10.92 21.29,-16.37 37.32,-16.37 15.13,0 26.82,6.21 35.12,18.57 8.3,12.36 12.45,29.74 12.45,52.09l0 8.75 -81.01 0 0 -21.16 58.58 0 0 0c-0.72,-10.83 -3.24,-19.27 -7.59,-25.38 -4.34,-6.12 -10.19,-9.16 -17.54,-9.16 -8.84,0 -15.76,3.26 -20.7,9.82 -4.93,6.51 -7.42,15.75 -7.42,27.72l0 16.98c0,11.08 2.64,19.62 7.94,25.52 5.28,5.93 12.71,8.93 22.27,8.93 4.78,0 9.51,-1.1 14.22,-3.25 4.69,-2.12 8.93,-5.15 12.64,-9.03l0 0 15.48 17.3 0 0c-5.92,6.33 -12.6,11.27 -20.03,14.74 -7.38,3.47 -14.84,5.23 -22.31,5.23zm150.57 -1.93l0 -133.79 23.57 0 0 133.79 -23.57 0zm-29.87 -41.89c-13.98,0 -24.8,-4.61 -32.47,-13.86 -7.65,-9.24 -11.53,-22.26 -11.53,-39.11l0 -38.93 23.62 0 0 39.81c0,8.37 1.89,14.79 5.68,19.36 3.75,4.54 9.06,6.82 15.85,6.82 9.16,0 16.26,-2.5 21.25,-7.53 4.98,-5.06 7.47,-12.1 7.47,-21.2l0 -13.56 7.37 0 0 12.63c0,17.64 -3.23,31.28 -9.71,41.01 -6.48,9.68 -15.65,14.56 -27.54,14.56zm158.32 41.89l0 -84.82c0,-8.76 -2.14,-15.58 -6.32,-20.41 -4.23,-4.85 -10.15,-7.31 -17.89,-7.31 -4.7,0 -9.37,0.79 -13.94,2.42 -4.58,1.59 -8.69,3.87 -12.33,6.87l-17.22 -13.16c4.55,-6.07 10.55,-10.83 17.97,-14.21 7.46,-3.39 15.72,-5.11 24.85,-5.11 15.04,0 26.66,4.36 34.91,13.03 8.25,8.66 12.4,20.94 12.4,36.74l0 85.97 -22.43 0zm-29.43 1.93c-14.73,0 -25.76,-3.38 -33.14,-10.2 -7.35,-6.78 -11.05,-17.16 -11.05,-31.16 0,-13.33 3.39,-23.27 10.14,-29.87 6.76,-6.55 16.87,-9.85 30.38,-9.85l34.13 0 1.61 21.16 -35.63 0c-6.12,0 -10.71,1.49 -13.78,4.57 -3.09,3.03 -4.63,7.7 -4.63,13.99 0,6.78 2.05,11.79 6.12,15.05 4.11,3.3 10.23,4.92 18.41,4.92 8.93,0 15.65,-1.09 20.15,-3.25 4.46,-2.11 6.72,-5.5 6.72,-10.03l2.4 18.84c-2.09,3.6 -4.66,6.54 -7.75,8.88 -3.08,2.28 -6.63,4.04 -10.58,5.19 -4,1.19 -8.49,1.76 -13.51,1.76zm108.67 -1.93l0 -119.76 23.61 0 0 119.76 -23.61 0zm-34.84 -110.09l0 -23.7 93.29 0 0 23.7 -93.29 0zm116.44 111.23l0 -24.99c6.16,0 10.98,-3.13 14.38,-9.42 3.44,-6.24 5.18,-15.13 5.18,-26.53l0 -74 23.58 0 0 77.6c0,18.3 -3.55,32.43 -10.71,42.41 -7.11,9.95 -17.19,14.92 -30.13,14.92l-2.3 0zm80.66 -1.15l0 -133.79 23.58 0 0 133.79 -23.58 0zm-46.41 -108.81l0 -24.98 58.89 0 0 24.98 -58.89 0zm185.83 61.78l-42.58 0c-12.59,0 -22.67,-4.01 -30.33,-11.93 -7.62,-7.97 -11.49,-18.48 -11.57,-31.54l0 0c0,-13.07 3.83,-23.55 11.53,-31.42 7.66,-7.92 17.77,-11.87 30.37,-11.87l42.58 0 0 24.98 -43.52 0c-4.78,0 -8.61,1.68 -11.49,5.07 -2.89,3.34 -4.35,7.74 -4.35,13.25l0 0c0,5.49 1.47,9.94 4.38,13.37 2.93,3.38 6.76,5.06 11.46,5.06l43.52 0 0 25.03zm11.46 47.03l-23.62 0 0 -133.79 23.62 0 0 133.79zm-70.34 0l-28 0 33.77 -58.77 23.5 5.94 -29.27 52.83zm121.14 -55.7l0 -22.39 51.5 0 0 22.39 -51.5 0zm-13.75 55.7l0 -133.79 23.59 0 0 133.79 -23.59 0zm100.88 1.93c-15.72,0 -27.93,-5.1 -36.54,-15.26 -8.64,-10.21 -12.95,-24.51 -12.95,-42.99l0 -21.78c0,-18.3 4.31,-32.51 12.95,-42.54 8.61,-10.08 20.82,-15.1 36.54,-15.1 15.77,0 27.93,5.01 36.57,15.1 8.65,10.03 12.96,24.24 12.96,42.54l0 22.17c0,18.35 -4.31,32.6 -12.96,42.72 -8.64,10.07 -20.81,15.13 -36.57,15.13zm0 -24.99c8.25,0 14.66,-2.91 19.17,-8.67 4.53,-5.77 6.79,-13.81 6.79,-24.2l0 -22.17c0,-10.43 -2.26,-18.43 -6.79,-24.11 -4.51,-5.67 -10.92,-8.54 -19.17,-8.54 -8.18,0 -14.54,2.87 -19.07,8.54 -4.55,5.67 -6.84,13.68 -6.84,24.11l0 22.17c0,10.39 2.29,18.43 6.84,24.2 4.54,5.77 10.9,8.67 19.07,8.67zm97.79 23.05l0 -23.71 119.53 0 0 23.71 -119.53 0zm46.18 0l0 -133.79 23.58 0 0 133.79 -23.58 0zm-60.86 0l0 -133.79 23.58 0 0 133.79 -23.58 0zm143.26 33.66l0 -57.37 23.58 0 0 57.37 -23.58 0zm-21.53 -33.66l0 -133.79 23.58 0 0 133.79 -23.58 0zm171.74 -0.14l-23.38 0 0 -94.99 2.77 3.35 -57.74 91.64 -20.47 0 0 -133.65 23.38 0 0 97.18 -2.8 -3.34 57.99 -93.84 20.26 0 0 133.65zm86.19 2.07c-16.75,0 -29.71,-5.19 -38.91,-15.62 -9.16,-10.38 -13.74,-25.17 -13.74,-44.3l0 -15.1c0,-19.93 4.43,-35.37 13.24,-46.28 8.85,-10.92 21.28,-16.37 37.32,-16.37 15.12,0 26.82,6.21 35.11,18.57 8.3,12.36 12.45,29.74 12.45,52.09l0 8.75 -81.02 0 0 -21.16 58.59 0 0 0c-0.71,-10.83 -3.24,-19.27 -7.59,-25.38 -4.34,-6.12 -10.18,-9.16 -17.53,-9.16 -8.85,0 -15.76,3.26 -20.7,9.82 -4.94,6.51 -7.42,15.75 -7.42,27.72l0 16.98c0,11.08 2.64,19.62 7.94,25.52 5.29,5.93 12.7,8.93 22.27,8.93 4.78,0 9.52,-1.1 14.23,-3.25 4.69,-2.12 8.92,-5.15 12.63,-9.03l0 0 15.49 17.3 0 0c-5.93,6.33 -12.61,11.27 -20.03,14.74 -7.39,3.47 -14.85,5.23 -22.32,5.23z"/>
  <path class="fil0 str4" d="M739.78 839.75c1016.23,0 2032.45,0 3048.68,0 0,142.78 0,285.56 0,428.35"/>
  <path class="fil0 str5" d="M3788.47 2152.26c0,445.5 0,891.03 0,1336.53"/>
  <rect class="fil0 str6" x="3.49" y="3.49" width="4777.93" height="3948.48"/>
 </g>
</svg>
