<?xml version="1.0" encoding="UTF-8"?>
<!DOCTYPE svg PUBLIC "-//W3C//DTD SVG 1.1//EN" "http://www.w3.org/Graphics/SVG/1.1/DTD/svg11.dtd">
<!-- Creator: CorelDRAW -->
<svg xmlns="http://www.w3.org/2000/svg" xml:space="preserve" width="52.2018mm" height="43.1528mm" version="1.1" style="shape-rendering:geometricPrecision; text-rendering:geometricPrecision; image-rendering:optimizeQuality; fill-rule:evenodd; clip-rule:evenodd"
viewBox="0 0 5651.66 4671.97"
 xmlns:xlink="http://www.w3.org/1999/xlink"
 xmlns:xodm="http://www.corel.com/coreldraw/odm/2003">
 <defs>
  <style type="text/css">
   <![CDATA[
    .str5 {stroke:#C1B4AB;stroke-width:216.53;stroke-miterlimit:22.9256}
    .str6 {stroke:#C1B4AB;stroke-width:216.53;stroke-miterlimit:22.9256}
    .str2 {stroke:#5E3D46;stroke-width:54.13;stroke-miterlimit:22.9256}
    .str1 {stroke:#C1B4AB;stroke-width:54.13;stroke-miterlimit:22.9256}
    .str3 {stroke:#C1B4AB;stroke-width:54.13;stroke-miterlimit:22.9256}
    .str7 {stroke:#373435;stroke-width:8.25;stroke-miterlimit:22.9256}
    .str4 {stroke:#5E3D46;stroke-width:8.25;stroke-miterlimit:22.9256}
    .str0 {stroke:#C1B4AB;stroke-width:54.13;stroke-miterlimit:22.9256;stroke-dasharray:108.265652 54.132826}
    .fil0 {fill:none}
    .fil1 {fill:#5E3D46;fill-rule:nonzero}
    .fil2 {fill:#66424C;fill-rule:nonzero}
   ]]>
  </style>
 </defs>
 <g id="Слой_x0020_1">
  <metadata id="CorelCorpID_0Corel-Layer"/>
  <g id="_1922975875280">
   <path class="fil0 str0" d="M4161.29 3148.48c-633.36,-55.27 -904.42,294.5 -909.06,762.68"/>
   <line class="fil0 str1" x1="1149.62" y1="1497.8" x2="1149.62" y2= "681.64" />
   <line class="fil0 str2" x1="3274.32" y1="3891.86" x2="901.94" y2= "3891.86" />
   <line class="fil0 str2" x1="1141.51" y1="2542.12" x2="1141.51" y2= "4120.76" />
   <path class="fil0 str3" d="M4093.79 3034.5c0,287.56 0,575.12 0,862.67 209.09,0 509.77,0 718.86,0"/>
   <path class="fil1 str4" d="M546.89 2296.3l-69.61 25.25 0 14.43 204.8 0 0 -14.43 -68.8 -25.25 0 -551.84 68.8 -25.25 0 -14.43 -204.8 0 0 14.43 69.61 25.25 0 551.84zm268.76 0l-74.48 25.25 0 14.43 193.47 0 0 -14.43 -74.48 -25.25 3.24 -504.06 191.05 552.76 17.01 0 192.65 -550.95 4.86 502.26 -76.1 25.25 0 14.43 217.75 0 0 -15.33 -74.47 -24.35 -5.67 -551.84 72.86 -24.36 0 -15.32 -151.39 0 -174.04 512.17 -173.24 -512.17 -157.85 0 0 14.43 74.48 25.25 -5.66 551.84zm722.08 0l-69.63 25.25 0 14.43 204.81 0 0 -15.33 -68.81 -24.35 0 -228.14 53.44 0c135.18,0 227.47,-51.39 227.47,-183.94 0,-130.75 -89.05,-179.44 -226.66,-179.44l-190.23 0 0 14.43 69.63 25.25 0 551.84zm66.37 -553.65l53.44 0c97.13,0 155.43,36.97 155.43,144.27 0,105.49 -59.91,143.37 -154.63,143.37l-54.24 0 0 -287.64zm405.57 553.65l-67.19 25.25 0 14.43 201.56 0 0 -15.33 -67.99 -24.35 0 -232.64 63.14 0c8.09,0 16.19,0 23.47,-0.91l138.43 273.23 128.71 0 0 -14.43 -75.28 -25.25 -126.28 -242.56c78.51,-20.74 128.71,-73.95 128.71,-174.94 0,-126.24 -87.44,-174.03 -222.61,-174.03l-191.86 0 0 14.43 67.19 25.25 0 551.84zm66.38 -553.65l56.67 0c93.09,0 152.19,33.36 152.19,137.96 0,108.2 -51,145.17 -139.25,145.17l-69.6 0 0 -283.14zm455.76 553.65l-69.63 25.25 0 14.43 391.8 0 0 -147.88 -12.14 0 -31.57 110.01 -212.09 0 0 -269.61 131.13 0 28.33 78.45 12.15 0 0 -194.77 -12.96 0 -27.52 78.44 -131.13 0 0 -247.96 207.23 0 21.85 101.89 12.96 0 12.14 -139.76 -390.18 0 0 14.43 69.63 25.25 0 551.84zm685.65 -100.99c0,68.53 -39.66,110.01 -123.86,110.01 -37.23,0 -74.48,-7.21 -105.23,-23.45l-21.05 -119.02 -11.34 0 -18.61 137.95c38.04,29.76 102.8,44.19 158.66,44.19 106.85,0 182.14,-55.01 182.14,-164.12 0,-101.89 -42.92,-134.36 -160.29,-203.79 -79.33,-47.79 -107.66,-80.25 -107.66,-134.36 0,-73.03 38.04,-107.3 108.47,-107.3 33.18,0 62.33,7.22 89.05,18.95l25.91 101.89 9.7 0 11.35 -122.63c-25.91,-19.83 -80.15,-37.87 -139.24,-37.87 -96.33,0 -165.14,49.6 -165.14,160.5 0,88.37 47.77,132.55 126.28,176.73 108.48,60.41 140.85,98.29 140.85,162.31zm418.51 0c0,68.53 -39.66,110.01 -123.86,110.01 -37.23,0 -74.47,-7.21 -105.22,-23.45l-21.06 -119.02 -11.34 0 -18.61 137.95c38.04,29.76 102.81,44.19 158.66,44.19 106.85,0 182.14,-55.01 182.14,-164.12 0,-101.89 -42.91,-134.36 -160.29,-203.79 -79.33,-47.79 -107.66,-80.25 -107.66,-134.36 0,-73.03 38.04,-107.3 108.48,-107.3 33.18,0 62.32,7.22 89.04,18.95l25.91 101.89 9.71 0 11.34 -122.63c-25.91,-19.83 -80.14,-37.87 -139.24,-37.87 -96.32,0 -165.14,49.6 -165.14,160.5 0,88.37 47.77,132.55 126.29,176.73 108.46,60.41 140.84,98.29 140.84,162.31zm199.95 100.99l-69.61 25.25 0 14.43 204.81 0 0 -14.43 -68.8 -25.25 0 -551.84 68.8 -25.25 0 -14.43 -204.81 0 0 14.43 69.61 25.25 0 551.84zm449.28 -599.64c-152.99,0 -245.28,126.24 -245.28,323.71 0,206.5 97.95,324.62 240.43,324.62 143.28,0 241.23,-119.94 241.23,-333.64 0,-190.26 -96.32,-314.7 -236.38,-314.7zm-5.67 37.88c108.48,0 166.76,122.62 166.76,285.83 0,159.61 -53.43,287.65 -161.09,287.65 -112.52,0 -170,-136.15 -170,-297.57 0,-154.19 51.82,-275.92 164.33,-275.92zm765.8 610.46l5.67 -600.54 69.6 -25.25 0 -14.43 -182.94 0 0 15.32 68.8 24.36 -2.43 440.02 -282.52 -479.7 -128.71 0 0 14.43 69.61 25.25 -6.47 551.84 -68.81 25.25 0 14.43 182.15 0 0 -15.33 -68.81 -24.35 3.24 -483.32 323.8 532.02 17.81 0z"/>
   <path class="fil2" d="M1380.08 3084.03l-27.62 0 0 -112.2 3.27 3.94 -68.21 108.25 -24.16 0 0 -157.87 27.61 0 0 114.79 -3.3 -3.95 68.48 -110.84 23.94 0 0 157.87zm133.38 0.15l0 -158.02 27.85 0 0 158.02 -27.85 0zm-89.67 0l0 -158.02 27.86 0 0 158.02 -27.86 0zm17.35 -63.65l0 -28.02 87.05 0 0 28.02 -87.05 0zm168.65 63.65l0 -141.45 27.9 0 0 141.45 -27.9 0zm-41.14 -130.02l0 -28.01 110.19 0 0 28.01 -110.19 0zm195.6 132.31c-19.77,0 -35.08,-6.14 -45.95,-18.45 -10.82,-12.27 -16.23,-29.73 -16.23,-52.34l0 -17.82c0,-23.55 5.23,-41.79 15.62,-54.67 10.45,-12.88 25.15,-19.33 44.09,-19.33 17.86,0 31.68,7.32 41.48,21.92 9.81,14.61 14.7,35.13 14.7,61.53l0 10.35 -95.69 0 0 -25 69.19 0 0 0c-0.86,-12.79 -3.83,-22.77 -8.98,-29.99 -5.12,-7.22 -12.03,-10.8 -20.71,-10.8 -10.45,0 -18.61,3.84 -24.45,11.58 -5.82,7.69 -8.77,18.61 -8.77,32.74l0 20.06c0,13.09 3.13,23.18 9.39,30.14 6.24,7.02 15.02,10.55 26.3,10.55 5.65,0 11.25,-1.3 16.8,-3.84 5.54,-2.49 10.55,-6.07 14.93,-10.65l0 0 18.29 20.42 0 0c-6.99,7.49 -14.89,13.31 -23.66,17.41 -8.72,4.11 -17.53,6.19 -26.36,6.19zm92 61.94l0 -222.26 27.86 0 0 222.26 -27.86 0zm63.54 -61.94c-8.81,0 -16.51,-2.34 -23.09,-7.07 -6.57,-4.73 -11.38,-11.43 -14.51,-20.06l1.92 -33c0,6.81 1.12,12.57 3.3,17.35 2.2,4.73 5.33,8.42 9.47,10.97 4.16,2.49 9.19,3.8 15.12,3.8 9.18,0 16.33,-3.12 21.41,-9.35 5.03,-6.25 7.56,-15.07 7.56,-26.46l0 -34.24c0,-11.53 -2.52,-20.53 -7.56,-26.93 -5.09,-6.38 -12.23,-9.6 -21.41,-9.6 -5.93,0 -10.97,1.25 -15.12,3.64 -4.15,2.44 -7.28,6.03 -9.47,10.65 -2.19,4.68 -3.3,10.39 -3.3,17.1l-2.86 -30.46c4.3,-9.25 9.9,-16.37 16.8,-21.41 6.95,-5.03 14.65,-7.52 23.09,-7.52 15.27,0 26.97,5.61 35.27,16.84 8.3,11.22 12.46,27.08 12.46,47.55l0 34.4c0,20.21 -4.29,35.91 -12.88,47.08 -8.54,11.17 -20.62,16.74 -36.2,16.74zm102.27 -2.3l0 -29.51 50.02 0c5.64,0 10.17,-1.97 13.61,-5.98 3.41,-3.95 5.09,-9.15 5.09,-15.64l0 0c0,-6.59 -1.68,-11.9 -5.09,-15.85 -3.44,-3.95 -7.97,-5.92 -13.61,-5.92l-50.02 0 0 -29.57 48.94 0c14.83,0 26.78,4.73 35.78,14.09 9.05,9.4 13.58,21.82 13.67,37.25l0 0c0,15.33 -4.53,27.65 -13.53,37.06 -9,9.4 -20.99,14.07 -35.92,14.07l-48.94 0zm-13.53 0l0 -158.02 27.86 0 0 158.02 -27.86 0zm206.26 2.3c-19.78,0 -35.09,-6.14 -45.96,-18.45 -10.83,-12.27 -16.23,-29.73 -16.23,-52.34l0 -17.82c0,-23.55 5.22,-41.79 15.62,-54.67 10.45,-12.88 25.15,-19.33 44.09,-19.33 17.87,0 31.68,7.32 41.48,21.92 9.8,14.61 14.7,35.13 14.7,61.53l0 10.35 -95.7 0 0 -25 69.19 0 0 0c-0.84,-12.79 -3.83,-22.77 -8.95,-29.99 -5.13,-7.22 -12.04,-10.8 -20.72,-10.8 -10.44,0 -18.61,3.84 -24.45,11.58 -5.84,7.69 -8.77,18.61 -8.77,32.74l0 20.06c0,13.09 3.13,23.18 9.39,30.14 6.24,7.02 15.01,10.55 26.31,10.55 5.64,0 11.24,-1.3 16.79,-3.84 5.54,-2.49 10.55,-6.07 14.93,-10.65l0 0 18.29 20.42 0 0c-6.99,7.49 -14.89,13.31 -23.66,17.41 -8.72,4.11 -17.53,6.19 -26.35,6.19zm91.99 61.94l0 -222.26 27.86 0 0 222.26 -27.86 0zm63.54 -61.94c-8.82,0 -16.51,-2.34 -23.09,-7.07 -6.57,-4.73 -11.38,-11.43 -14.51,-20.06l1.92 -33c0,6.81 1.12,12.57 3.3,17.35 2.2,4.73 5.33,8.42 9.47,10.97 4.16,2.49 9.19,3.8 15.12,3.8 9.18,0 16.33,-3.12 21.41,-9.35 5.03,-6.25 7.56,-15.07 7.56,-26.46l0 -34.24c0,-11.53 -2.52,-20.53 -7.56,-26.93 -5.09,-6.38 -12.23,-9.6 -21.41,-9.6 -5.93,0 -10.97,1.25 -15.12,3.64 -4.15,2.44 -7.28,6.03 -9.47,10.65 -2.19,4.68 -3.3,10.39 -3.3,17.1l-2.86 -30.46c4.3,-9.25 9.9,-16.37 16.8,-21.41 6.95,-5.03 14.65,-7.52 23.09,-7.52 15.25,0 26.96,5.61 35.27,16.84 8.3,11.22 12.46,27.08 12.46,47.55l0 34.4c0,20.21 -4.3,35.91 -12.89,47.08 -8.53,11.17 -20.61,16.74 -36.19,16.74zm214.46 -2.3l0 -158.02 27.9 0 0 158.02 -27.9 0zm-112.2 0l0 -29.51 43.2 0c5.64,0 10.18,-1.97 13.58,-5.98 3.4,-3.95 5.13,-9.15 5.13,-15.64l0 0c0,-6.59 -1.73,-11.9 -5.13,-15.85 -3.4,-3.95 -7.94,-5.92 -13.58,-5.92l-43.2 0 0 -29.57 42.08 0c14.83,0 26.77,4.73 35.83,14.09 9,9.4 13.58,21.82 13.66,37.25l0 0c0,15.33 -4.53,27.65 -13.52,37.06 -9.05,9.4 -21.05,14.07 -35.97,14.07l-42.08 0zm-13.53 0l0 -158.02 27.86 0 0 158.02 -27.86 0z"/>
   <path class="fil2" d="M1320.6 2796.1c-19.5,0 -34.57,-5.98 -45.3,-17.98 -10.7,-11.95 -16.04,-28.83 -16.04,-50.67l0 -26.03c0,-21.62 5.35,-38.36 16.04,-50.2 10.73,-11.8 25.8,-17.72 45.3,-17.72 11.16,0 21.13,2.19 30.1,6.55 8.91,4.36 16.04,10.6 21.32,18.71l0 0 -20.12 20.12 0 0c-3.92,-5.1 -8.54,-9 -13.94,-11.75 -5.37,-2.71 -11.01,-4.11 -16.93,-4.11 -10.73,0 -19.09,3.39 -25.01,10.09 -5.92,6.7 -8.86,16.11 -8.86,28.32l0 26.03c0,12.48 2.93,22.09 8.86,28.9 5.92,6.81 14.28,10.24 25.01,10.24 5.92,0 11.56,-1.5 16.93,-4.42 5.4,-2.97 10.03,-7.12 13.94,-12.53l0 0 20.12 21.62 0 0c-5.27,7.95 -12.41,14.03 -21.41,18.35 -8.95,4.31 -18.95,6.49 -30,6.49zm136.54 0c-18.61,0 -32.98,-6.02 -43.19,-18.03 -10.22,-12.06 -15.3,-28.95 -15.3,-50.78l0 -25.72c0,-21.62 5.08,-38.4 15.3,-50.25 10.21,-11.91 24.58,-17.83 43.19,-17.83 18.58,0 32.99,5.92 43.21,17.83 10.18,11.84 15.31,28.63 15.31,50.25l0 26.19c0,21.67 -5.13,38.51 -15.31,50.46 -10.22,11.9 -24.63,17.87 -43.21,17.87zm0 -29.51c9.77,0 17.27,-3.43 22.64,-10.24 5.32,-6.81 7.98,-16.32 7.98,-28.58l0 -26.19c0,-12.32 -2.66,-21.77 -7.98,-28.47 -5.37,-6.7 -12.87,-10.09 -22.64,-10.09 -9.65,0 -17.15,3.39 -22.56,10.09 -5.37,6.7 -8.02,16.15 -8.02,28.47l0 26.19c0,12.27 2.65,21.77 8.02,28.58 5.41,6.81 12.92,10.24 22.56,10.24zm142.59 29.51c-14.94,0 -27.06,-4.1 -36.34,-12.26 -9.32,-8.16 -14.93,-19.69 -16.84,-34.61l0 0 27.06 0 0 0c1.03,5.87 3.77,10.44 8.3,13.66 4.48,3.27 10.31,4.88 17.4,4.88 7.94,0 14.1,-1.92 18.47,-5.77 4.34,-3.89 6.54,-9.35 6.54,-16.47l0 -0.16c0,-5.45 -1.54,-9.71 -4.71,-12.79 -3.13,-3.01 -7.6,-4.57 -13.44,-4.57l-22.31 0 0 -26.45 22.31 0c4.23,0 7.59,-1.6 9.93,-4.72 2.39,-3.18 3.59,-7.6 3.59,-13.25l0 -0.16c0,-6.92 -1.92,-12.21 -5.69,-16 -3.78,-3.75 -9.19,-5.62 -16.19,-5.62 -6.49,0 -11.9,1.61 -16.28,4.88 -4.38,3.23 -7.32,7.81 -8.86,13.67l0 0 -26.93 0 0 0c2.62,-14.92 8.59,-26.46 17.87,-34.61 9.33,-8.16 21.13,-12.27 35.4,-12.27 15.49,0 27.49,3.69 35.88,11.12 8.44,7.38 12.65,17.89 12.65,31.34l0 0.15c0,8.63 -1.87,16.11 -5.6,22.4 -3.74,6.29 -8.95,10.91 -15.72,13.88 8.3,1.3 14.68,4.98 19.22,11.01 4.53,6.03 6.77,13.92 6.77,23.7l0 0.15c0,15.49 -4.58,27.54 -13.77,36.06 -9.14,8.52 -22.06,12.79 -38.72,12.79zm86.92 -14.44l-9.57 -15.85 3.27 0c5.74,0 10.07,-1.76 13.01,-5.25 2.89,-3.54 4.86,-8.99 5.88,-16.37 0.99,-7.44 1.49,-16.89 1.49,-28.47l0 -79.92 27.9 0 0 90.26c0,18.39 -3.41,32.22 -10.13,41.57 -6.76,9.35 -16.27,14.03 -28.59,14.03l-3.26 0zm-14.61 51.91l0 -67.76 27.86 0 0 67.76 -27.86 0zm0 -39.76l0 -28.01 136.51 0 0 28.01 -136.51 0zm125.17 39.76l0 -67.76 27.9 0 0 67.76 -27.9 0zm-25.28 -39.76l0 -158.02 27.9 0 0 158.02 -27.9 0zm-53.84 -130.03l0 -28 63.12 0 0 28 -63.12 0zm219.93 130.03l0 -100.19c0,-10.35 -2.52,-18.41 -7.47,-24.11 -4.99,-5.73 -12,-8.63 -21.13,-8.63 -5.54,0 -11.06,0.93 -16.47,2.86 -5.41,1.87 -10.26,4.57 -14.55,8.11l-20.34 -15.55c5.36,-7.17 12.45,-12.79 21.23,-16.78 8.81,-4.01 18.57,-6.03 29.35,-6.03 17.76,0 31.47,5.15 41.23,15.38 9.75,10.23 14.65,24.73 14.65,43.39l0 101.54 -26.49 0zm-34.76 2.28c-17.4,0 -30.41,-4 -39.14,-12.05 -8.68,-8.01 -13.07,-20.27 -13.07,-36.8 0,-15.74 4.01,-27.49 11.99,-35.28 7.99,-7.74 19.93,-11.64 35.89,-11.64l40.3 0 1.93 25 -42.08 0c-7.23,0 -12.65,1.76 -16.28,5.4 -3.64,3.58 -5.47,9.09 -5.47,16.52 0,8.01 2.43,13.92 7.23,17.78 4.85,3.9 12.08,5.81 21.75,5.81 10.53,0 18.46,-1.29 23.79,-3.84 5.26,-2.49 7.94,-6.5 7.94,-11.84l2.85 22.25c-2.47,4.25 -5.52,7.73 -9.15,10.49 -3.64,2.7 -7.84,4.77 -12.5,6.13 -4.71,1.41 -10.03,2.08 -15.96,2.08zm161.71 0c-19.78,0 -35.1,-6.13 -45.96,-18.45 -10.83,-12.26 -16.23,-29.73 -16.23,-52.32l0 -17.83c0,-23.54 5.22,-41.78 15.62,-54.66 10.45,-12.89 25.15,-19.34 44.09,-19.34 17.87,0 31.67,7.33 41.48,21.93 9.8,14.59 14.69,35.12 14.69,61.53l0 10.34 -95.69 0 0 -25 69.19 0 0 0c-0.84,-12.79 -3.83,-22.76 -8.96,-29.98 -5.12,-7.23 -12.03,-10.82 -20.71,-10.82 -10.45,0 -18.61,3.85 -24.45,11.6 -5.84,7.69 -8.77,18.6 -8.77,32.74l0 20.06c0,13.09 3.13,23.17 9.38,30.14 6.25,7 15.02,10.55 26.32,10.55 5.64,0 11.24,-1.3 16.79,-3.84 5.54,-2.5 10.53,-6.08 14.93,-10.66l0 0 18.28 20.43 0 0c-6.98,7.48 -14.88,13.31 -23.65,17.41 -8.73,4.1 -17.54,6.18 -26.35,6.18zm158.66 -72.91l41.97 -87.4 24.74 0 0 158.02 -25.15 0 0 -111.58 1.35 9.72 -34.57 71.09 -16.66 0 -34.56 -71.09 1.35 -9.72 0 111.58 -25.15 0 0 -158.02 24.73 0 41.94 87.4zm202 70.62l0 -28.01 52.49 0c5.55,0 9.84,-1.76 12.87,-5.25 2.99,-3.54 4.48,-8.37 4.48,-14.55l0 -0.47c0,-6.6 -1.49,-11.69 -4.48,-15.38 -3.03,-3.64 -7.32,-5.46 -12.87,-5.46l-52.49 0 0 -28.01 52.49 0c9.84,0 14.79,-5.1 14.79,-15.23l0 0c0,-11.79 -4.85,-17.67 -14.51,-17.67l-52.77 0 0 -28 53.74 0c13.3,0 23.57,3.42 30.8,10.27 7.28,6.87 10.86,16.53 10.86,29l0 0c0,9.51 -2.65,17.46 -8.07,23.75 -5.36,6.29 -12.93,10.29 -22.67,12 10.59,2.24 18.75,7.07 24.58,14.4 5.84,7.37 8.78,16.58 8.78,27.65l0 0.47c0,12.88 -3.92,22.87 -11.71,29.88 -7.8,7.07 -18.76,10.6 -32.99,10.6l-53.32 0zm-16.37 0l0 -158.02 27.71 0 0 158.02 -27.71 0zm240.96 0l0 -158.02 27.86 0 0 158.02 -27.86 0zm-89.67 0l0 -158.02 27.86 0 0 158.02 -27.86 0zm17.35 -128.52l0 -29.5 87.06 0 0 29.5 -87.06 0zm202.01 130.81c-19.78,0 -35.09,-6.13 -45.96,-18.45 -10.83,-12.26 -16.23,-29.73 -16.23,-52.32l0 -17.83c0,-23.54 5.23,-41.78 15.62,-54.66 10.45,-12.89 25.15,-19.34 44.09,-19.34 17.87,0 31.68,7.33 41.48,21.93 9.81,14.59 14.7,35.12 14.7,61.53l0 10.34 -95.69 0 0 -25 69.19 0 0 0c-0.86,-12.79 -3.83,-22.76 -8.96,-29.98 -5.13,-7.23 -12.04,-10.82 -20.72,-10.82 -10.44,0 -18.61,3.85 -24.45,11.6 -5.82,7.69 -8.76,18.6 -8.76,32.74l0 20.06c0,13.09 3.12,23.17 9.38,30.14 6.24,7 15.02,10.55 26.31,10.55 5.64,0 11.24,-1.3 16.79,-3.84 5.54,-2.5 10.55,-6.08 14.93,-10.66l0 0 18.29 20.43 0 0c-6.99,7.48 -14.89,13.31 -23.66,17.41 -8.72,4.1 -17.53,6.18 -26.35,6.18zm177.85 -2.28l0 -158.02 27.84 0 0 158.02 -27.84 0zm-35.28 -49.48c-16.51,0 -29.3,-5.45 -38.35,-16.37 -9.04,-10.91 -13.62,-26.29 -13.62,-46.2l0 -45.98 27.9 0 0 47.02c0,9.88 2.23,17.46 6.71,22.87 4.43,5.36 10.7,8.05 18.72,8.05 10.82,0 19.21,-2.96 25.1,-8.89 5.88,-5.98 8.82,-14.29 8.82,-25.04l0 -16.01 8.7 0 0 14.92c0,20.84 -3.81,36.95 -11.47,48.44 -7.65,11.43 -18.48,17.19 -32.52,17.19zm187 49.48l0 -100.19c0,-10.35 -2.52,-18.41 -7.47,-24.11 -4.99,-5.73 -11.99,-8.63 -21.13,-8.63 -5.55,0 -11.06,0.93 -16.47,2.86 -5.41,1.87 -10.26,4.57 -14.56,8.11l-20.34 -15.55c5.37,-7.17 12.46,-12.79 21.23,-16.78 8.81,-4.01 18.57,-6.03 29.35,-6.03 17.77,0 31.48,5.15 41.24,15.38 9.74,10.23 14.65,24.73 14.65,43.39l0 101.54 -26.49 0zm-34.76 2.28c-17.4,0 -30.42,-4 -39.14,-12.05 -8.68,-8.01 -13.06,-20.27 -13.06,-36.8 0,-15.74 4.01,-27.49 11.97,-35.28 7.98,-7.74 19.93,-11.64 35.88,-11.64l40.32 0 1.91 25 -42.08 0c-7.23,0 -12.65,1.76 -16.27,5.4 -3.65,3.58 -5.47,9.09 -5.47,16.52 0,8.01 2.43,13.92 7.23,17.78 4.85,3.9 12.08,5.81 21.74,5.81 10.55,0 18.48,-1.29 23.8,-3.84 5.27,-2.49 7.94,-6.5 7.94,-11.84l2.84 22.25c-2.47,4.25 -5.5,7.73 -9.15,10.49 -3.64,2.7 -7.83,4.77 -12.49,6.13 -4.72,1.41 -10.03,2.08 -15.96,2.08zm128.35 -2.28l0 -141.45 27.89 0 0 141.45 -27.89 0zm-41.15 -130.03l0 -28 110.19 0 0 28 -110.19 0zm137.53 131.38l0 -29.51c7.28,0 12.97,-3.69 16.99,-11.13 4.06,-7.37 6.12,-17.87 6.12,-31.33l0 -87.4 27.85 0 0 91.66c0,21.62 -4.19,38.3 -12.65,50.09 -8.4,11.75 -20.3,17.63 -35.59,17.63l-2.72 0zm95.27 -1.35l0 -158.02 27.86 0 0 158.02 -27.86 0zm-54.81 -128.52l0 -29.5 69.56 0 0 29.5 -69.56 0zm219.49 72.97l-50.29 0c-14.88,0 -26.77,-4.73 -35.83,-14.09 -9,-9.41 -13.58,-21.83 -13.66,-37.25l0 0c0,-15.44 4.53,-27.81 13.62,-37.11 9.05,-9.35 20.99,-14.02 35.87,-14.02l50.29 0 0 29.5 -51.4 0c-5.65,0 -10.17,1.98 -13.57,5.99 -3.41,3.94 -5.14,9.14 -5.14,15.64l0 0c0,6.49 1.73,11.74 5.18,15.8 3.46,4 7.99,5.98 13.53,5.98l51.4 0 0 29.57zm13.53 55.55l-27.9 0 0 -158.02 27.9 0 0 158.02zm-83.08 0l-33.08 0 39.89 -69.42 27.76 7.02 -34.57 62.4zm143.08 -65.79l0 -26.45 60.83 0 0 26.45 -60.83 0zm-16.24 65.79l0 -158.02 27.87 0 0 158.02 -27.87 0zm119.16 2.28c-18.57,0 -32.99,-6.02 -43.15,-18.03 -10.21,-12.06 -15.3,-28.95 -15.3,-50.78l0 -25.72c0,-21.62 5.09,-38.4 15.3,-50.25 10.17,-11.91 24.59,-17.83 43.15,-17.83 18.62,0 32.99,5.92 43.2,17.83 10.22,11.84 15.31,28.63 15.31,50.25l0 26.19c0,21.67 -5.09,38.51 -15.31,50.46 -10.21,11.9 -24.58,17.87 -43.2,17.87zm0 -29.51c9.74,0 17.31,-3.43 22.64,-10.24 5.35,-6.81 8.02,-16.32 8.02,-28.58l0 -26.19c0,-12.32 -2.67,-21.77 -8.02,-28.47 -5.33,-6.7 -12.89,-10.09 -22.64,-10.09 -9.66,0 -17.17,3.39 -22.53,10.09 -5.37,6.7 -8.08,16.15 -8.08,28.47l0 26.19c0,12.27 2.71,21.77 8.08,28.58 5.36,6.81 12.87,10.24 22.53,10.24zm115.51 27.23l0 -28.01 141.18 0 0 28.01 -141.18 0zm54.54 0l0 -158.02 27.85 0 0 158.02 -27.85 0zm-71.89 0l0 -158.02 27.85 0 0 158.02 -27.85 0zm169.21 39.76l0 -67.76 27.86 0 0 67.76 -27.86 0zm-25.43 -39.76l0 -158.02 27.86 0 0 158.02 -27.86 0zm202.85 -0.16l-27.62 0 0 -112.2 3.27 3.95 -68.2 108.24 -24.18 0 0 -157.86 27.62 0 0 114.78 -3.31 -3.94 68.49 -110.84 23.93 0 0 157.86zm101.8 2.45c-19.78,0 -35.09,-6.13 -45.96,-18.45 -10.82,-12.26 -16.23,-29.73 -16.23,-52.32l0 -17.83c0,-23.54 5.23,-41.78 15.63,-54.66 10.45,-12.89 25.14,-19.34 44.09,-19.34 17.86,0 31.68,7.33 41.47,21.93 9.8,14.59 14.7,35.12 14.7,61.53l0 10.34 -95.7 0 0 -25 69.2 0 0 0c-0.84,-12.79 -3.83,-22.76 -8.96,-29.98 -5.13,-7.23 -12.03,-10.82 -20.71,-10.82 -10.45,0 -18.61,3.85 -24.45,11.6 -5.84,7.69 -8.77,18.6 -8.77,32.74l0 20.06c0,13.09 3.12,23.17 9.38,30.14 6.25,7 15.01,10.55 26.31,10.55 5.64,0 11.25,-1.3 16.8,-3.84 5.54,-2.5 10.53,-6.08 14.92,-10.66l0 0 18.3 20.43 0 0c-7,7.48 -14.9,13.31 -23.66,17.41 -8.73,4.1 -17.54,6.18 -26.36,6.18z"/>
   <path class="fil0 str5" d="M901.94 991.86c1200.31,0 2400.61,0 3600.93,0 0,168.65 0,337.29 0,505.94"/>
   <path class="fil0 str6" d="M4502.87 2542.12c0,526.2 0,1052.43 0,1578.63"/>
  </g>
  <rect class="fil0 str7" x="4.12" y="4.12" width="5643.41" height="4663.72"/>
 </g>
</svg>
