<svg xmlns:inkscape="http://www.inkscape.org/namespaces/inkscape" xmlns:sodipodi="http://sodipodi.sourceforge.net/DTD/sodipodi-0.dtd" xmlns="http://www.w3.org/2000/svg" xmlns:svg="http://www.w3.org/2000/svg" xmlns:rdf="http://www.w3.org/1999/02/22-rdf-syntax-ns#" xmlns:cc="http://creativecommons.org/ns#" xmlns:dc="http://purl.org/dc/elements/1.1/" width="64pt" height="64pt" viewBox="0 0 22.577778 22.577778" version="1.1" id="svg831" inkscape:version="1.1.1 (3bf5ae0d25, 2021-09-20)" sodipodi:docname="TEMPLATE.svg" inkscape:export-filename="C:\Users\User\Desktop\CARLOS PROJECT\4. APRIL 2\Export\Expanded\23 - Wheelbarrow.png" inkscape:export-xdpi="576" inkscape:export-ydpi="576">
  <defs id="defs825" fill="#9a8162">
    <pattern id="EMFhbasepattern" patternUnits="userSpaceOnUse" width="6" height="6" x="0" y="0" fill="#9a8162"/>
    <pattern id="EMFhbasepattern-9" patternUnits="userSpaceOnUse" width="6" height="6" x="0" y="0" fill="#9a8162"/>
    <pattern id="EMFhbasepattern-0" patternUnits="userSpaceOnUse" width="6" height="6" x="0" y="0" fill="#9a8162"/>
    <pattern id="EMFhbasepattern-7" patternUnits="userSpaceOnUse" width="6" height="6" x="0" y="0" fill="#9a8162"/>
    <pattern id="EMFhbasepattern-2" patternUnits="userSpaceOnUse" width="6" height="6" x="0" y="0" fill="#9a8162"/>
    <pattern id="EMFhbasepattern-98" patternUnits="userSpaceOnUse" width="6" height="6" x="0" y="0" fill="#9a8162"/>
    <pattern id="EMFhbasepattern-6" patternUnits="userSpaceOnUse" width="6" height="6" x="0" y="0" fill="#9a8162"/>
    <pattern id="EMFhbasepattern-01" patternUnits="userSpaceOnUse" width="6" height="6" x="0" y="0" fill="#9a8162"/>
    <pattern id="EMFhbasepattern-07" patternUnits="userSpaceOnUse" width="6" height="6" x="0" y="0" fill="#9a8162"/>
    <pattern id="EMFhbasepattern-8" patternUnits="userSpaceOnUse" width="6" height="6" x="0" y="0" fill="#9a8162"/>
    <pattern id="EMFhbasepattern-4" patternUnits="userSpaceOnUse" width="6" height="6" x="0" y="0" fill="#9a8162"/>
    <pattern id="EMFhbasepattern-40" patternUnits="userSpaceOnUse" width="6" height="6" x="0" y="0" fill="#9a8162"/>
    <pattern id="EMFhbasepattern-08" patternUnits="userSpaceOnUse" width="6" height="6" x="0" y="0" fill="#9a8162"/>
    <pattern id="EMFhbasepattern-04" patternUnits="userSpaceOnUse" width="6" height="6" x="0" y="0" fill="#9a8162"/>
    <pattern id="EMFhbasepattern-014" patternUnits="userSpaceOnUse" width="6" height="6" x="0" y="0" fill="#9a8162"/>
    <pattern id="EMFhbasepattern-27" patternUnits="userSpaceOnUse" width="6" height="6" x="0" y="0" fill="#9a8162"/>
    <pattern id="EMFhbasepattern-09" patternUnits="userSpaceOnUse" width="6" height="6" x="0" y="0" fill="#9a8162"/>
    <pattern id="EMFhbasepattern-5" patternUnits="userSpaceOnUse" width="6" height="6" x="0" y="0" fill="#9a8162"/>
    <pattern id="EMFhbasepattern-018" patternUnits="userSpaceOnUse" width="6" height="6" x="0" y="0" fill="#9a8162"/>
  </defs>
  <sodipodi:namedview id="base" pagecolor="#ffffff" bordercolor="#666666" borderopacity="1.0" inkscape:pageopacity="0.0" inkscape:pageshadow="2" inkscape:zoom="6.4882571" inkscape:cx="27.280053" inkscape:cy="42.61545" inkscape:document-units="pt" inkscape:current-layer="layer1" showgrid="false" units="pt" inkscape:window-width="1920" inkscape:window-height="1001" inkscape:window-x="-9" inkscape:window-y="-9" inkscape:window-maximized="1" inkscape:pagecheckerboard="true" inkscape:showpageshadow="false" inkscape:object-paths="true" inkscape:snap-intersection-paths="true" inkscape:snap-smooth-nodes="true" inkscape:snap-midpoints="true" showguides="true" inkscape:snap-bbox="true" inkscape:bbox-nodes="true" inkscape:snap-nodes="false" inkscape:snap-global="true" fill="#9a8162">
    <inkscape:grid type="xygrid" id="grid1378" fill="#9a8162"/>
    <sodipodi:guide position="0.97013831,21.607643" orientation="78.000048,0" id="guide1380" inkscape:locked="false" fill="#9a8162"/>
    <sodipodi:guide position="0.97013831,0.97013129" orientation="0,78.000005" id="guide1382" inkscape:locked="false" fill="#9a8162"/>
    <sodipodi:guide position="21.607639,0.97013129" orientation="-78.000048,0" id="guide1384" inkscape:locked="false" fill="#9a8162"/>
    <sodipodi:guide position="21.607639,21.607643" orientation="0,-78.000005" id="guide1386" inkscape:locked="false" fill="#9a8162"/>
  </sodipodi:namedview>
  <metadata id="metadata828" fill="#9a8162">
    <rdf:RDF fill="#9a8162">
      <cc:Work rdf:about="" fill="#9a8162">
        <dc:format fill="#9a8162">image/svg+xml</dc:format>
        <dc:type rdf:resource="http://purl.org/dc/dcmitype/StillImage" fill="#9a8162"/>
      </cc:Work>
    </rdf:RDF>
  </metadata>
  <g inkscape:label="Icon" inkscape:groupmode="layer" id="layer1" transform="translate(0,-274.42223)">
    <path id="rect22073" style="color:#9a8162;display:inline;fill:#9a8162;stroke-width:0.999998;stroke-linecap:round;stroke-linejoin:round;-inkscape-stroke:none" d="m 8.5175314,282.05899 h -6.550239 c -0.5460696,0 -0.99715409,0.45109 -0.99715409,0.99715 v 11.94837 c 0,0.54607 0.45108449,0.99715 0.99715409,0.99715 h 8.6301346 c 0.54607,0 0.995212,-0.45107 0.995212,-0.99715 v -1.34272 h 8.929669 c 0.615129,0 1.085335,-0.54543 1.085331,-1.16898 v -13.39157 c -4e-6,-0.9077 -0.284664,-1.80117 -0.757269,-2.48966 -0.472605,-0.6885 -1.15917,-1.19101 -1.955412,-1.191 H 7.1229398 c -0.6628407,0.066 -1.0787349,0.52259 -1.3206788,1.27924 -0.2221299,0.71527 -0.1841313,1.57105 -0.1841313,2.40148 6.64e-4,0.18256 0.1487384,0.33028 0.3313059,0.33066 h 2.5680958 z m 0.1588462,-5.97445 c 3.3708814,10e-6 6.9095554,10e-6 10.2185804,0 0.513335,0 1.017011,0.33478 1.406263,0.90185 0.389251,0.56708 0.642508,1.34852 0.642511,2.11491 v 13.39158 c 0,0.30102 -0.205445,0.50506 -0.421424,0.50506 h -8.929669 v -9.94174 c 0,-0.54606 -0.449142,-0.99714 -0.995212,-0.99714 H 9.1814377 v -2.95776 c 0,-0.82167 0.071174,-1.67194 -0.1199409,-2.38916 -0.064263,-0.24114 -0.2351889,-0.42953 -0.3851192,-0.6276 z m -2.3697039,2.68347 c 3.319e-4,-0.70501 -0.01212,-1.4138 0.1303181,-1.87243 0.1754439,-0.55251 0.5668964,-0.78386 1.0115907,-0.78386 0.4585767,0.008 0.8063706,0.35245 0.9704021,0.77159 0.1246182,0.46768 0.1079944,1.15595 0.1011429,1.8867 z m 3.9575023,-1.02434 c -0.183335,6.7e-4 -0.3313723,0.14992 -0.3306553,0.33324 6.639e-4,0.18233 0.1483363,0.32995 0.3306553,0.33066 h 3.984736 c 0.182318,-6.7e-4 0.329946,-0.14833 0.330656,-0.33066 6.63e-4,-0.18332 -0.147322,-0.33252 -0.330656,-0.33324 z m 5.312549,0 c -0.184347,-6.7e-4 -0.333975,0.1489 -0.333252,0.33324 6.64e-4,0.18334 0.149917,0.33139 0.333252,0.33066 h 3.318233 c 0.183335,6.6e-4 0.332534,-0.14732 0.333251,-0.33066 6.64e-4,-0.18434 -0.148904,-0.33397 -0.333251,-0.33324 z m -5.312549,1.32781 c -0.182574,6.6e-4 -0.3303001,0.14873 -0.3306553,0.33131 -6.638e-4,0.18332 0.1473203,0.33252 0.3306553,0.33325 h 7.304914 c 0.183335,-6.6e-4 0.331376,-0.14993 0.330658,-0.33325 -3.31e-4,-0.18258 -0.148084,-0.33059 -0.330658,-0.33131 z m 0,1.32846 c -0.182322,7.1e-4 -0.3299448,0.14833 -0.3306553,0.33065 -6.638e-4,0.18335 0.1473203,0.33254 0.3306553,0.33326 h 2.656277 c 0.184345,7.2e-4 0.333967,-0.14892 0.333247,-0.33326 -6.63e-4,-0.18332 -0.149917,-0.33137 -0.333247,-0.33065 z m 3.984736,0 c -0.183335,-7.3e-4 -0.332537,0.14733 -0.333251,0.33065 -6.64e-4,0.18435 0.148904,0.33397 0.333251,0.33326 h 5.643203 c 0.183334,-7.3e-4 0.331373,-0.14991 0.330655,-0.33326 -6.64e-4,-0.18232 -0.148333,-0.32993 -0.330655,-0.33065 z m -12.2816196,2.32303 h 8.6301346 c 0.187264,0 0.331305,0.146 0.331305,0.33325 v 11.94836 c 0,0.18727 -0.144041,0.33325 -0.331305,0.33325 H 1.9672924 c -0.1872648,0 -0.3332478,-0.14598 -0.3332478,-0.33325 v -11.94836 c 0,-0.18725 0.145983,-0.33325 0.3332478,-0.33325 z m 1.3278126,0.6639 c -0.5460596,0 -0.9971508,0.44915 -0.997154,0.99521 v 1.32781 c -1e-5,0.54606 0.4510878,0.99716 0.997154,0.99716 h 5.9745095 c 0.5460694,0 0.9945715,-0.4511 0.9945615,-0.99716 v -1.32781 c -3e-6,-0.54606 -0.448502,-0.99521 -0.9945615,-0.99521 z m 16.263776,8.96403 c 0.362741,0 0.663919,-0.30181 0.663905,-0.66455 v -7.63557 c 1.4e-5,-0.36274 -0.301164,-0.66391 -0.663905,-0.66391 h -3.982156 c -0.362742,0 -0.66392,0.30117 -0.663906,0.66391 v 1.32845 h -1.327814 c -0.362751,0 -0.664552,0.30119 -0.664552,0.66391 v 5.64321 c 0,0.36274 0.301813,0.66455 0.664552,0.66455 1.991292,0 3.982585,0 5.973876,0 z M 3.295105,284.05078 h 5.9745095 c 0.1872613,0 0.3306551,0.14404 0.3306551,0.3313 v 1.32781 c 3.3e-6,0.18726 -0.1433904,0.33325 -0.3306551,0.33325 H 3.295105 c -0.1872647,0 -0.3332511,-0.14599 -0.3332477,-0.33325 v -1.32781 c 0,-0.18726 0.1459862,-0.3313 0.3332477,-0.3313 z m 12.28162,0 h 3.982138 v 7.63557 h -0.994561 v -1.66105 c -6.63e-4,-0.18258 -0.148738,-0.3303 -0.331305,-0.33067 h -1.327814 c -0.183324,-7e-4 -0.332513,0.14734 -0.333247,0.33067 v 1.66105 h -0.995211 c 3.2e-5,-2.54595 0,-5.0894 0,-7.63557 z m 0.995211,0.66456 c -0.182322,6.8e-4 -0.329947,0.14833 -0.330658,0.33064 -6.65e-4,0.18334 0.147324,0.33254 0.330658,0.33325 h 0.333247 c 0.183336,-7.2e-4 0.331377,-0.14991 0.33066,-0.33325 -6.64e-4,-0.18231 -0.148337,-0.32994 -0.33066,-0.33064 z m 1.661061,0 c -0.183332,-7.4e-4 -0.332535,0.14731 -0.333249,0.33064 -6.64e-4,0.18435 0.148902,0.33398 0.333249,0.33325 h 0.331305 c 0.183336,-7.2e-4 0.331373,-0.14991 0.330656,-0.33325 -6.64e-4,-0.18231 -0.148334,-0.32994 -0.330656,-0.33064 z m -4.647992,1.3278 h 1.327814 v 0.66391 h -0.333251 c -0.182575,7.3e-4 -0.330301,0.14873 -0.330656,0.33131 -6.64e-4,0.18333 0.14732,0.33253 0.330656,0.33324 h 0.333251 v 0.66392 h -0.333251 c -0.182323,6.9e-4 -0.329946,0.14833 -0.330656,0.33066 -6.64e-4,0.18332 0.14732,0.33252 0.330656,0.33323 h 0.333251 v 0.66197 h -0.333251 c -0.183336,7.2e-4 -0.331374,0.14992 -0.330656,0.33325 6.63e-4,0.18231 0.148333,0.32995 0.330656,0.33067 h 0.333251 v 1.66105 h -1.327814 z m 2.986931,0 c -0.182322,6.9e-4 -0.329947,0.14834 -0.330658,0.33066 -6.65e-4,0.18333 0.147324,0.33255 0.330658,0.33325 h 0.333247 c 0.183336,-7.3e-4 0.331377,-0.14992 0.33066,-0.33325 -6.64e-4,-0.18232 -0.148337,-0.32995 -0.33066,-0.33066 z m 1.661061,0 c -0.183332,-7.2e-4 -0.332535,0.14732 -0.333249,0.33066 -6.64e-4,0.18434 0.148902,0.33397 0.333249,0.33325 h 0.331305 c 0.183336,-7.3e-4 0.331373,-0.14992 0.330656,-0.33325 -6.64e-4,-0.18232 -0.148334,-0.32994 -0.330656,-0.33066 z M 5.9325757,287.3716 c -0.3551235,0.009 -0.6477102,0.30684 -0.647697,0.66392 v 0.66389 c 1.32e-5,0.36273 0.301835,0.66197 0.6645569,0.66197 h 0.6639063 c 0.3627286,0 0.6639063,-0.29922 0.6639063,-0.66197 v -0.66389 c 0,-0.36272 -0.3011777,-0.66392 -0.6639063,-0.66392 z m 2.6562759,0 c -0.3551169,0.009 -0.647697,0.30685 -0.647697,0.66392 v 0.66389 c 0,0.36275 0.3018217,0.66197 0.6645535,0.66197 h 0.6639064 c 0.3627318,0 0.6639062,-0.29922 0.6639062,-0.66197 v -0.66389 c 0,-0.36272 -0.3011744,-0.66392 -0.6639062,-0.66392 z m 7.9830844,0 c -0.182322,7e-4 -0.329947,0.14835 -0.330658,0.33067 -6.65e-4,0.18332 0.147324,0.33253 0.330658,0.33325 h 0.333247 c 0.183336,-7.5e-4 0.331377,-0.14993 0.33066,-0.33325 -6.64e-4,-0.18232 -0.148337,-0.32996 -0.33066,-0.33067 z m 1.661061,0 c -0.183332,-7.3e-4 -0.332535,0.14733 -0.333249,0.33067 -6.64e-4,0.18434 0.148902,0.33396 0.333249,0.33325 h 0.331305 c 0.183336,-7.5e-4 0.331373,-0.14993 0.330656,-0.33325 -6.64e-4,-0.18232 -0.148334,-0.32995 -0.330656,-0.33067 z m -12.2835614,0.66392 h 0.6639063 v 0.66389 H 5.9494356 Z m 2.6562725,0 h 0.6639064 v 0.66389 H 8.6057081 Z m -5.3274596,1.98978 c -0.3551169,0.009 -0.6470498,0.30682 -0.6470498,0.66389 v 0.66391 c 0,0.36272 0.3011745,0.66455 0.6639063,0.66455 h 0.661961 c 0.3627319,0 0.6639064,-0.30183 0.6639064,-0.66455 v -0.66391 c 0,-0.36274 -0.3011745,-0.66389 -0.6639064,-0.66389 z m 2.6543272,0 c -0.3551235,0.009 -0.6477102,0.30682 -0.647697,0.66389 v 0.66391 c 1.32e-5,0.36271 0.301835,0.66455 0.6645569,0.66455 h 0.6639063 c 0.3627286,0 0.6639063,-0.30183 0.6639063,-0.66455 v -0.66391 c 0,-0.36274 -0.3011777,-0.66389 -0.6639063,-0.66389 z m 2.6731324,0 c -0.3627352,0 -0.6645535,0.30116 -0.6645535,0.66389 v 3.32018 c 0,0.36274 0.3018183,0.66456 0.6645535,0.66456 h 0.6639064 c 0.3627351,0 0.6639062,-0.30182 0.6639062,-0.66456 v -3.32018 c 0,-0.36273 -0.3011711,-0.66389 -0.6639062,-0.66389 z m 8.6301349,0.33323 h 0.663905 v 1.32782 h -0.663905 z m -13.940738,0.33066 h 0.661961 v 0.66391 H 3.295105 Z m 2.6543306,0 h 0.6639063 v 0.66391 H 5.9494356 Z m 2.6562725,0 h 0.6639064 v 3.32018 H 8.6057081 Z m -5.3274596,1.99237 c -0.3551169,0.009 -0.6470498,0.30683 -0.6470498,0.66391 v 0.6639 c 0,0.36274 0.3011745,0.66456 0.6639063,0.66456 h 0.661961 c 0.3627319,0 0.6639064,-0.30182 0.6639064,-0.66456 v -0.6639 c 0,-0.36273 -0.3011745,-0.66391 -0.6639064,-0.66391 z m 2.6543272,0 c -0.3551235,0.009 -0.6477102,0.30682 -0.647697,0.66391 v 0.6639 c 1.32e-5,0.36273 0.301835,0.66456 0.6645569,0.66456 h 0.6639063 c 0.3627286,0 0.6639063,-0.30182 0.6639063,-0.66456 v -0.6639 c 0,-0.36273 -0.3011777,-0.66391 -0.6639063,-0.66391 z m -2.6374707,0.66391 h 0.661961 v 0.6639 H 3.295105 Z m 2.6543306,0 h 0.6639063 v 0.6639 H 5.9494356 Z" sodipodi:nodetypes="csssssscsccsccccccccsscsscsscssccccccccsccscccsccsccccccccccsccscccsccsccssssssssssscsscssscccssccsssccssscsscssccccccccccccsccscccsccscccccccccccsccccsccccccsccscccsccscccccsssscccsssssscccsccscccsccscccccccccccccsssssscccccssssccssssssssscccccccccccccccccccccsssssscccccsssscccccccccccc"/>
  </g>
</svg>