<?xml version="1.0" encoding="UTF-8"?>
<!DOCTYPE svg PUBLIC "-//W3C//DTD SVG 1.1//EN" "http://www.w3.org/Graphics/SVG/1.1/DTD/svg11.dtd">
<!-- Creator: CorelDRAW -->
<svg xmlns="http://www.w3.org/2000/svg" xml:space="preserve" width="32.8083mm" height="31.4854mm" version="1.1" style="shape-rendering:geometricPrecision; text-rendering:geometricPrecision; image-rendering:optimizeQuality; fill-rule:evenodd; clip-rule:evenodd"
viewBox="0 0 598.61 574.47"
 xmlns:xlink="http://www.w3.org/1999/xlink"
 xmlns:xodm="http://www.corel.com/coreldraw/odm/2003">
 <defs>
  <style type="text/css">
   <![CDATA[
    .fil0 {fill:#9A8162;fill-rule:nonzero}
   ]]>
  </style>
 </defs>
 <g id="Слой_x0020_1">
  <metadata id="CorelCorpID_0Corel-Layer"/>
  <g id="_1295606809408">
   <g>
    <path class="fil0" d="M82.07 574.47l516.54 0 0 -502.06 -506.88 0 0 -72.41 -9.66 0c-45.38,0 -82.07,36.69 -82.07,82.07l0 0 0 410.33 0 0c0,45.38 36.69,82.07 82.07,82.07zm-62.76 -492.4c0,-31.38 23.17,-57.45 53.1,-61.79l0 194.55c0,84.48 0,168.96 0,195.99 -21.24,2.41 -40.07,13.03 -53.1,28.48l0 -357.23 0 0zm0 410.33c0,-34.76 28,-62.76 62.76,-62.76l9.65 0 0 -337.92 487.57 -0 0 463.44 -497.23 0c-34.76,0 -62.76,-28 -62.76,-62.76l0 0z"/>
    <polygon class="fil0" points="531.02,236.55 366.89,236.55 366.89,226.89 347.58,226.89 347.58,255.86 511.71,255.86 511.71,487.57 366.89,487.57 366.89,313.79 347.58,313.79 347.58,487.57 159.31,487.57 159.31,255.86 270.34,255.86 270.34,222.06 251.03,222.06 251.03,236.55 159.31,236.55 159.31,159.31 347.58,159.31 347.58,168.96 366.89,168.96 366.89,140 140,140 140,506.88 531.02,506.88 "/>
   </g>
  </g>
 </g>
</svg>
