<?xml version="1.0" encoding="UTF-8"?>
<!DOCTYPE svg PUBLIC "-//W3C//DTD SVG 1.1//EN" "http://www.w3.org/Graphics/SVG/1.1/DTD/svg11.dtd">
<!-- Creator: CorelDRAW -->
<svg xmlns="http://www.w3.org/2000/svg" xml:space="preserve" width="32.8347mm" height="31.4854mm" version="1.1" style="shape-rendering:geometricPrecision; text-rendering:geometricPrecision; image-rendering:optimizeQuality; fill-rule:evenodd; clip-rule:evenodd"
viewBox="0 0 608.73 583.71"
 xmlns:xlink="http://www.w3.org/1999/xlink"
 xmlns:xodm="http://www.corel.com/coreldraw/odm/2003">
 <defs>
  <style type="text/css">
   <![CDATA[
    .str0 {stroke:#9A8162;stroke-width:4.63;stroke-miterlimit:22.9256}
    .fil0 {fill:#9A8162;fill-rule:nonzero}
   ]]>
  </style>
 </defs>
 <g id="Слой_x0020_1">
  <metadata id="CorelCorpID_0Corel-Layer"/>
  <path class="fil0 str0" d="M224.81 483.32c0,3.35 -2.72,6.07 -6.07,6.07l-56.86 0c-3.35,0 -6.07,-2.72 -6.07,-6.07 0,-3.35 2.72,-6.06 6.07,-6.06l56.86 0c3.35,0 6.07,2.72 6.07,6.06zm72.02 -267.62c23.41,0 42.45,19.05 42.45,42.45l0 10.61c0,3.35 -2.72,6.07 -6.07,6.07l-72.78 0c-3.35,0 -6.06,-2.72 -6.06,-6.06l0 -10.61c0,-23.41 19.05,-42.45 42.45,-42.45l0 -0zm-30.32 42.46l0 4.55 60.65 0 0 -4.55c0,-16.72 -13.6,-30.33 -30.32,-30.33 -16.72,0 -30.32,13.6 -30.32,30.33zm-60.27 206.97c3.35,0 6.07,-2.72 6.06,-6.07l-0.32 -237.05c-0.03,-21.07 17.02,-38.14 38.09,-38.14l2.6 0c12.16,0 23.3,5.6 30.58,15.37 2,2.68 5.8,3.24 8.49,1.24 2.69,-2 3.24,-5.8 1.24,-8.49 -9.44,-12.68 -24.51,-20.26 -40.31,-20.26l-2.6 0c-27.78,0 -50.26,22.5 -50.22,50.29l0.32 237.05c0.01,3.35 2.72,6.06 6.07,6.06zm286.19 -82.63l0 -39.55c0,-17.91 -14.57,-32.48 -32.48,-32.48l-165.52 0c-17.91,0 -32.48,14.57 -32.48,32.48l0 14.53c0,3.35 2.72,6.07 6.07,6.07 3.35,0 6.06,-2.72 6.06,-6.07l0 -14.53c0,-11.22 9.13,-20.34 20.34,-20.34l77.45 0 0 68.23c0,3.35 2.72,6.07 6.06,6.07 3.35,0 6.07,-2.72 6.07,-6.07l0 -68.23 75.93 0c11.22,0 20.35,9.13 20.35,20.34l0 39.71c-13.62,1.47 -24.26,13.03 -24.26,27.03l0 5.41c0,3.35 2.72,6.06 6.07,6.06 3.35,0 6.06,-2.71 6.06,-6.06l0 -5.41c0,-8.31 6.76,-15.06 15.06,-15.06l9.3 0c8.31,0 15.06,6.76 15.06,15.06l0 52.51c0,8.31 -6.76,15.06 -15.06,15.06l-24.36 -0c0,-39.69 0.03,-37.25 -0.05,-37.91 0.46,-3.7 -2.43,-6.82 -6.01,-6.82l-135.7 0c-3.35,0 -6.06,2.71 -6.06,6.06 0,3.35 2.72,6.07 6.06,6.07l129.64 -0 0 38.67c0,3.35 2.72,6.06 6.07,6.06l30.42 0c14.99,0 27.19,-12.2 27.19,-27.19l0 -52.51c0,-14.8 -11.96,-27.19 -27.29,-27.19zm-61.41 94.76c-5.48,0 -159.03,0 -167.64,0 -8.31,0 -15.06,-6.76 -15.06,-15.06l0 -52.51c0,-8.31 6.76,-15.06 15.06,-15.06l9.3 0c8.31,0 15.06,6.76 15.06,15.06l0 34.21c0,3.35 2.72,6.07 6.07,6.07 3.35,0 6.06,-2.72 6.06,-6.07l0 -34.21c0,-14.99 -12.2,-27.19 -27.19,-27.19l-9.3 0c-14.99,0 -27.19,12.2 -27.19,27.19l0 52.51c0,14.99 12.2,27.19 27.19,27.19l167.64 0c3.35,0 6.07,-2.72 6.07,-6.06 0,-3.35 -2.72,-6.07 -6.07,-6.07l0 0z"/>
  <path class="fil0" d="M19.62 500.32l-19.62 0c0,46.11 37.28,83.39 83.39,83.39l524.85 0 0 -510.14 -515.04 0 0 -73.58 -9.81 0c-46.11,0 -83.39,37.28 -83.39,83.39l0 416.94 19.62 0c0,-35.32 28.45,-63.77 63.77,-63.77l9.81 0 0 -343.36 495.42 -0 0 470.89 -505.23 0c-35.32,0 -63.77,-28.45 -63.77,-63.77zm53.96 -282.04c0,85.84 0,171.68 0,199.15 -21.58,2.45 -40.71,13.24 -53.96,28.94l0 -362.98c0,-31.88 23.54,-58.37 53.96,-62.79l0 197.68z"/>
  <path class="fil0" d="M122.63 0l0 49.05 428.71 0 57.39 -24.53 -57.39 -24.53 -428.71 -0zm19.62 19.62l29.43 0 0 9.81 -29.43 -0 0 -9.81zm405.16 9.81l-356.11 0 0 -9.81 356.11 0 11.28 4.91 -11.28 4.9z"/>
 </g>
</svg>
