<?xml version="1.0" encoding="UTF-8"?>
<!DOCTYPE svg PUBLIC "-//W3C//DTD SVG 1.1//EN" "http://www.w3.org/Graphics/SVG/1.1/DTD/svg11.dtd">
<!-- Creator: CorelDRAW -->
<svg xmlns="http://www.w3.org/2000/svg" xml:space="preserve" width="32.8084mm" height="32.8084mm" version="1.1" style="shape-rendering:geometricPrecision; text-rendering:geometricPrecision; image-rendering:optimizeQuality; fill-rule:evenodd; clip-rule:evenodd"
viewBox="0 0 6240.82 6240.82"
 xmlns:xlink="http://www.w3.org/1999/xlink"
 xmlns:xodm="http://www.corel.com/coreldraw/odm/2003">
 <defs>
  <style type="text/css">
   <![CDATA[
    .fil0 {fill:#9A8162;fill-rule:nonzero}
   ]]>
  </style>
 </defs>
 <g id="Слой_x0020_1">
  <metadata id="CorelCorpID_0Corel-Layer"/>
  <g id="_1295766472112">
   <g>
    <path class="fil0" d="M-0 5234.23l2390.63 0 0 805.26 -1283.38 0 0 201.31 4026.31 0.02 0 -201.31 -1283.38 -0.02 0 -805.26 2390.63 0 0 -5234.23 -6240.82 0 0 5234.23zm3648.86 805.26l-1056.9 0 0 -805.26 1056.9 0 0 805.26zm-3447.53 -1006.57l0 -553.62 5838.16 0 0 553.62 -5838.16 0zm5838.16 -4831.59l0 4076.66 -5838.16 -0.02 0 -4076.64 5838.16 0z"/>
    <polygon class="fil0" points="4730.94,1560.2 3447.55,1560.2 3447.55,1509.87 3246.24,1509.87 3246.24,1761.51 4529.62,1761.51 4529.62,3523.05 3447.55,3523.05 3447.55,2189.32 3246.24,2189.32 3246.24,3523.05 1821.91,3523.05 1821.91,1761.51 2692.6,1761.51 2692.6,1469.62 2491.29,1469.62 2491.29,1560.2 1821.91,1560.2 1821.91,1006.59 3246.24,1006.59 3246.24,1056.92 3447.55,1056.92 3447.55,805.28 1620.6,805.28 1620.6,3724.36 4730.94,3724.36 "/>
   </g>
  </g>
 </g>
</svg>
